<?xml version="1.0" encoding="UTF-8"?>
<svg version="1.1" xmlns="http://www.w3.org/2000/svg" width="80" height="80">
<path d="M0 0 C4.59010795 3.14471226 7.65602331 6.5621744 8.7109375 12.0078125 C8.83914632 15.67971302 8.75469488 19.33219271 8.7109375 23.0078125 C12.3409375 23.0078125 15.9709375 23.0078125 19.7109375 23.0078125 C19.66453125 22.22277344 19.618125 21.43773438 19.5703125 20.62890625 C19.29860437 12.72025884 19.72396388 8.47322295 25.078125 2.4765625 C29.64735242 -1.61528295 34.59239613 -1.77686419 40.5390625 -1.55078125 C45.31975826 -0.70886069 48.53492846 1.37332446 51.7109375 5.0078125 C55.18734182 10.21668234 54.26631536 17.03750052 53.7109375 23.0078125 C51.47558176 27.9943753 48.43698117 30.34941293 43.7109375 33.0078125 C40.73629208 33.95429059 38.07294509 34.11607732 34.9609375 34.0703125 C32.8571875 34.039375 32.8571875 34.039375 30.7109375 34.0078125 C30.7109375 37.3078125 30.7109375 40.6078125 30.7109375 44.0078125 C32.4434375 43.915 32.4434375 43.915 34.2109375 43.8203125 C41.05501257 43.83242591 46.78298892 46.22480359 51.7109375 51.0078125 C55.14794947 56.27224985 54.26963771 63.00178529 53.7109375 69.0078125 C51.50106548 73.93752701 48.62626287 76.76573426 43.7109375 79.0078125 C37.78855711 79.74716699 32.59630398 79.90088083 27.1484375 77.3203125 C23.02087953 73.40442417 19.82733625 70.22507386 19.61328125 64.30859375 C19.64583333 61.54166667 19.67838542 58.77473958 19.7109375 56.0078125 C16.0809375 56.0078125 12.4509375 56.0078125 8.7109375 56.0078125 C8.7728125 57.5134375 8.8346875 59.0190625 8.8984375 60.5703125 C8.87554409 65.97315611 8.17975952 70.47315522 4.24609375 74.51171875 C-1.25194886 79.23008783 -4.99789613 79.3515466 -12.08203125 79.2890625 C-17.58399087 78.80655203 -20.08023603 76.3799939 -23.6015625 72.3828125 C-27.08405371 67.48152857 -26.87415353 62.89122791 -26.2890625 57.0078125 C-24.65999543 52.15602579 -21.59712259 48.71287349 -17.2890625 46.0078125 C-12.10943657 44.05323668 -7.73587469 43.81669628 -2.2890625 44.0078125 C-2.2890625 40.7078125 -2.2890625 37.4078125 -2.2890625 34.0078125 C-4.2690625 34.100625 -4.2690625 34.100625 -6.2890625 34.1953125 C-11.9908953 34.15950821 -16.82089501 33.32574371 -21.0859375 29.3203125 C-25.66529366 24.0867626 -26.65373895 20.81181111 -26.5625 13.83203125 C-26.03057354 8.33799086 -23.44426181 4.72523551 -19.3515625 1.0703125 C-13.85050925 -2.50596618 -5.93812692 -2.57386389 0 0 Z M-14.2265625 11.6953125 C-15.48120333 14.42600137 -15.74608996 16.03713401 -15.2890625 19.0078125 C-13.41045417 21.5126236 -12.32804376 21.99481875 -9.2890625 23.0078125 C-6.95606425 23.04735484 -4.62198061 23.05182982 -2.2890625 23.0078125 C-1.91031449 17.09663422 -1.91031449 17.09663422 -3.3515625 11.4453125 C-6.89785901 8.81418928 -10.88309481 8.78326 -14.2265625 11.6953125 Z M32.00390625 11.2109375 C30.25703108 13.63861901 30.40819758 15.23748798 30.5234375 18.1953125 C30.55050781 19.09636719 30.57757813 19.99742188 30.60546875 20.92578125 C30.64027344 21.61285156 30.67507812 22.29992188 30.7109375 23.0078125 C35.61188453 23.2961035 38.92705893 23.34652888 42.7109375 20.0078125 C43.85215458 16.65548733 44.09174965 14.91224134 42.7109375 11.6328125 C40.68085466 9.69037585 40.68085466 9.69037585 37.2109375 9.5703125 C33.84607361 9.7123141 33.84607361 9.7123141 32.00390625 11.2109375 Z M8.7109375 34.0078125 C8.7109375 37.3078125 8.7109375 40.6078125 8.7109375 44.0078125 C12.3409375 44.0078125 15.9709375 44.0078125 19.7109375 44.0078125 C19.7109375 40.7078125 19.7109375 37.4078125 19.7109375 34.0078125 C16.0809375 34.0078125 12.4509375 34.0078125 8.7109375 34.0078125 Z M-14.08203125 57.3359375 C-15.52209427 59.0716619 -15.52209427 59.0716619 -15.7890625 61.9453125 C-15.54653348 65.16163366 -15.54653348 65.16163366 -13.1015625 67.4453125 C-10.44284943 69.22028128 -10.44284943 69.22028128 -7.6640625 69.0078125 C-4.65212221 67.73962711 -3.72742935 66.96024972 -2.2890625 64.0078125 C-2.04977978 61.28727205 -2.15198514 58.74935968 -2.2890625 56.0078125 C-3.89239041 55.92659326 -5.49690276 55.86852116 -7.1015625 55.8203125 C-7.99488281 55.78550781 -8.88820313 55.75070313 -9.80859375 55.71484375 C-12.32386821 55.80364801 -12.32386821 55.80364801 -14.08203125 57.3359375 Z M30.7109375 56.0078125 C30.4173628 59.06098936 30.29235158 61.96259994 30.7109375 65.0078125 C32.72083898 67.78351829 32.72083898 67.78351829 35.7109375 69.0078125 C38.93430948 69.0078125 40.1971249 68.47024384 42.5859375 66.3203125 C44.11997362 63.16701602 43.64995214 61.3304797 42.7109375 58.0078125 C40.89900744 55.76456414 40.89900744 55.76456414 38.328125 55.8125 C37.42320313 55.83570313 36.51828125 55.85890625 35.5859375 55.8828125 C34.67585938 55.90085938 33.76578125 55.91890625 32.828125 55.9375 C32.12945312 55.96070313 31.43078125 55.98390625 30.7109375 56.0078125 Z " fill="#33A9E7" transform="translate(26.2890625,0.9921875)"/>
<path d="M0 0 C0 0.33 0 0.66 0 1 C-1.5159375 1.2784375 -1.5159375 1.2784375 -3.0625 1.5625 C-7.88333945 2.92448513 -10.93086355 6.16155494 -14 10 C-14.70688359 11.31245488 -15.38652292 12.64137272 -16 14 C-16.33 13.34 -16.66 12.68 -17 12 C-13.64220445 4.58486817 -8.75750241 -1.0679881 0 0 Z " fill="#4AA7D9" transform="translate(17,0)"/>
</svg>