<?xml version="1.0" encoding="UTF-8"?>
<svg xmlns="http://www.w3.org/2000/svg" xmlns:xlink="http://www.w3.org/1999/xlink" width="24px" height="24px" viewBox="0 0 24 24" version="1.1">
<g id="surface1">
<path style=" stroke:none;fill-rule:nonzero;fill:rgb(20%,66.274512%,90.588236%);fill-opacity:1;" d="M 7.886719 0.296875 C 9.265625 1.242188 10.183594 2.265625 10.5 3.898438 C 10.539062 5 10.511719 6.097656 10.5 7.199219 C 11.589844 7.199219 12.679688 7.199219 13.800781 7.199219 C 13.785156 6.964844 13.773438 6.730469 13.757812 6.484375 C 13.675781 4.113281 13.804688 2.839844 15.410156 1.039062 C 16.78125 -0.1875 18.265625 -0.234375 20.046875 -0.167969 C 21.484375 0.0859375 22.445312 0.710938 23.398438 1.800781 C 24.441406 3.363281 24.167969 5.410156 24 7.199219 C 23.328125 8.695312 22.417969 9.402344 21 10.199219 C 20.109375 10.484375 19.308594 10.53125 18.375 10.519531 C 17.742188 10.507812 17.742188 10.507812 17.101562 10.5 C 17.101562 11.488281 17.101562 12.480469 17.101562 13.5 C 17.621094 13.472656 17.621094 13.472656 18.148438 13.445312 C 20.203125 13.449219 21.921875 14.164062 23.398438 15.601562 C 24.429688 17.179688 24.167969 19.199219 24 21 C 23.335938 22.480469 22.472656 23.328125 21 24 C 19.222656 24.222656 17.664062 24.269531 16.03125 23.492188 C 14.792969 22.320312 13.835938 21.363281 13.769531 19.589844 C 13.78125 18.761719 13.789062 17.929688 13.800781 17.101562 C 12.710938 17.101562 11.621094 17.101562 10.5 17.101562 C 10.519531 17.550781 10.539062 18.003906 10.554688 18.46875 C 10.550781 20.089844 10.339844 21.441406 9.160156 22.652344 C 7.511719 24.066406 6.386719 24.101562 4.261719 24.085938 C 2.613281 23.941406 1.863281 23.210938 0.804688 22.011719 C -0.238281 20.542969 -0.175781 19.164062 0 17.398438 C 0.488281 15.945312 1.40625 14.910156 2.699219 14.101562 C 4.253906 13.511719 5.566406 13.441406 7.199219 13.5 C 7.199219 12.511719 7.199219 11.519531 7.199219 10.5 C 6.605469 10.527344 6.605469 10.527344 6 10.554688 C 4.289062 10.546875 2.839844 10.296875 1.5625 9.09375 C 0.1875 7.523438 -0.109375 6.542969 -0.0820312 4.449219 C 0.078125 2.800781 0.851562 1.714844 2.082031 0.617188 C 3.730469 -0.453125 6.105469 -0.472656 7.886719 0.296875 Z M 3.617188 3.804688 C 3.242188 4.625 3.164062 5.109375 3.300781 6 C 3.863281 6.75 4.1875 6.894531 5.101562 7.199219 C 5.800781 7.210938 6.5 7.214844 7.199219 7.199219 C 7.3125 5.425781 7.3125 5.425781 6.882812 3.730469 C 5.816406 2.941406 4.621094 2.933594 3.617188 3.804688 Z M 17.488281 3.660156 C 16.964844 4.390625 17.007812 4.867188 17.042969 5.757812 C 17.050781 6.027344 17.058594 6.296875 17.070312 6.574219 C 17.078125 6.78125 17.089844 6.988281 17.101562 7.199219 C 18.570312 7.285156 19.566406 7.300781 20.699219 6.300781 C 21.042969 5.292969 21.113281 4.769531 20.699219 3.789062 C 20.089844 3.203125 20.089844 3.203125 19.050781 3.167969 C 18.039062 3.210938 18.039062 3.210938 17.488281 3.660156 Z M 10.5 10.5 C 10.5 11.488281 10.5 12.480469 10.5 13.5 C 11.589844 13.5 12.679688 13.5 13.800781 13.5 C 13.800781 12.511719 13.800781 11.519531 13.800781 10.5 C 12.710938 10.5 11.621094 10.5 10.5 10.5 Z M 3.664062 17.5 C 3.230469 18.019531 3.230469 18.019531 3.148438 18.882812 C 3.222656 19.847656 3.222656 19.847656 3.957031 20.53125 C 4.753906 21.0625 4.753906 21.0625 5.585938 21 C 6.492188 20.621094 6.769531 20.386719 7.199219 19.5 C 7.273438 18.683594 7.242188 17.921875 7.199219 17.101562 C 6.71875 17.074219 6.238281 17.058594 5.757812 17.042969 C 5.488281 17.035156 5.21875 17.023438 4.945312 17.011719 C 4.191406 17.039062 4.191406 17.039062 3.664062 17.5 Z M 17.101562 17.101562 C 17.011719 18.015625 16.972656 18.886719 17.101562 19.800781 C 17.703125 20.632812 17.703125 20.632812 18.601562 21 C 19.566406 21 19.945312 20.839844 20.664062 20.195312 C 21.121094 19.246094 20.980469 18.695312 20.699219 17.699219 C 20.15625 17.027344 20.15625 17.027344 19.386719 17.042969 C 19.113281 17.046875 18.84375 17.054688 18.5625 17.0625 C 18.289062 17.066406 18.015625 17.074219 17.734375 17.078125 C 17.527344 17.085938 17.316406 17.09375 17.101562 17.101562 Z M 17.101562 17.101562 "/>
<path style=" stroke:none;fill-rule:nonzero;fill:rgb(29.019609%,65.490198%,85.09804%);fill-opacity:1;" d="M 5.101562 0 C 5.101562 0.0976562 5.101562 0.199219 5.101562 0.300781 C 4.644531 0.382812 4.644531 0.382812 4.179688 0.46875 C 2.734375 0.878906 1.820312 1.847656 0.898438 3 C 0.6875 3.394531 0.484375 3.792969 0.300781 4.199219 C 0.199219 4.003906 0.101562 3.804688 0 3.601562 C 1.007812 1.375 2.472656 -0.320312 5.101562 0 Z M 5.101562 0 "/>
</g>
</svg>
