<?xml version="1.0" encoding="UTF-8"?>
<svg version="1.1" xmlns="http://www.w3.org/2000/svg" width="236" height="56">
<path d="M0 0 C3.56090843 2.52824499 5.51293584 5.60374941 6.9375 9.6875 C7.00025989 12.00961577 6.73270634 13.80188097 6 16 C7.65 16 9.3 16 11 16 C10.938125 14.96875 10.87625 13.9375 10.8125 12.875 C11.05958055 7.76866865 12.24891972 4.64163776 16 1.125 C20.65104786 -0.61914295 25.10410591 -0.80127996 30 0 C33.41311667 2.52570633 34.66637768 3.99913304 36 8 C36.25029686 12.50534346 36.2536247 16.02932791 34 20 C29.10469083 24.40577825 26.55422145 25.12137447 20 25 C20 26.65 20 28.3 20 30 C21.03125 29.7525 22.0625 29.505 23.125 29.25 C27.89334694 28.94236471 29.42931208 29.92754761 33 33 C34.3125 35.125 34.3125 35.125 35 37 C35.33 37.66 35.66 38.32 36 39 C36.40104417 44.21357417 35.87196113 47.58948826 33 52 C29.56760517 54.79676615 25.21710255 54.30245613 21 54 C18.5 53.5 18.5 53.5 17 53 C17 52.34 17 51.68 17 51 C16.34 51 15.68 51 15 51 C15 50.34 15 49.68 15 49 C14.01 48.505 14.01 48.505 13 48 C11.03191281 44.93853104 10.80009165 42.59835033 11 39 C9.35 39 7.7 39 6 39 C6.2475 39.86625 6.495 40.7325 6.75 41.625 C7 45 7 45 5.4375 48.1875 C2.65457709 51.3985649 1.05851297 52.72231999 -3 54 C-7.98472019 54.26403815 -11.78627067 53.70396301 -16.125 51.1875 C-18.99750792 46.30423653 -18.39695115 41.53085275 -18 36 C-17.34 36 -16.68 36 -16 36 C-15.95875 35.401875 -15.9175 34.80375 -15.875 34.1875 C-15 32 -15 32 -12.3125 30.1875 C-8.64248468 28.87183413 -6.72188336 29.02522102 -3 30 C-3 28.35 -3 26.7 -3 25 C-4.093125 24.855625 -5.18625 24.71125 -6.3125 24.5625 C-10 24 -10 24 -13 23 C-13 22.34 -13 21.68 -13 21 C-13.66 21 -14.32 21 -15 21 C-15 20.34 -15 19.68 -15 19 C-15.66 19 -16.32 19 -17 19 C-18.43382353 7.63970588 -18.43382353 7.63970588 -17 4 C-12.26005373 -0.42394985 -6.222636 -1.18848483 0 0 Z M-8 8 C-8.66 9.32 -9.32 10.64 -10 12 C-8.77409808 14.07977297 -8.77409808 14.07977297 -7 16 C-5.68 16 -4.36 16 -3 16 C-2.67 13.69 -2.34 11.38 -2 9 C-4.97 8.505 -4.97 8.505 -8 8 Z M20 11 C19.83312552 13.58354218 19.83312552 13.58354218 20 16 C22.41645782 16.16687448 22.41645782 16.16687448 25 16 C27.28728734 14.16116119 27.28728734 14.16116119 27.125 11.375 C27.08375 10.59125 27.0425 9.8075 27 9 C23.04542152 8.65176193 23.04542152 8.65176193 20 11 Z M6 25 C6.33 26.65 6.66 28.3 7 30 C8.32 30 9.64 30 11 30 C11 28.35 11 26.7 11 25 C9.35 25 7.7 25 6 25 Z M-9 38 C-9.76956136 40.34533951 -9.76956136 40.34533951 -10 43 C-9 45 -9 45 -7 46 C-4.34533951 45.76956136 -4.34533951 45.76956136 -2 45 C-2.33 43.02 -2.66 41.04 -3 39 C-5.97 38.505 -5.97 38.505 -9 38 Z M20 39 C20.18828772 41.44480079 20.18828772 41.44480079 21 44 C22.80092298 45.48396654 22.80092298 45.48396654 25 46 C25.99 45.67 26.98 45.34 28 45 C27.34 42.69 26.68 40.38 26 38 C23.97549079 38 21.97599474 38.59466775 20 39 Z " fill="#30A9E8" transform="translate(19,1)"/>
<path d="M0 0 C2.30205326 3.68328522 2.63944937 7.19853045 2.5625 11.5 C1.6319416 15.06714051 0.36976214 17.14552208 -2.4375 19.5 C-6.61252403 20.73530674 -10.30434256 20.93397519 -14.375 19.375 C-17.80901524 16.25316796 -18.33605241 13.6159235 -18.75 9.0625 C-18.40174543 5.09239796 -17.66299574 2.79987299 -15.4375 -0.5 C-10.6216972 -3.66467041 -4.75507868 -2.92620226 0 0 Z M-12.3125 4.625 C-13.67374256 8.10373098 -13.46531685 9.94217244 -12.4375 13.5 C-10.61046773 15.7491908 -10.61046773 15.7491908 -7.9375 15.75 C-5.26453227 15.7491908 -5.26453227 15.7491908 -3.4375 13.5 C-3.119116 11.3601368 -3.119116 11.3601368 -3.1875 9 C-3.18234375 8.2059375 -3.1771875 7.411875 -3.171875 6.59375 C-3.24810091 4.28107249 -3.24810091 4.28107249 -5.4375 2.5 C-8.91235244 1.87630854 -9.93403403 1.92940523 -12.3125 4.625 Z " fill="#29A8EA" transform="translate(198.4375,19.5)"/>
<path d="M0 0 C2.44195316 3.74432819 2.1446547 6.65610397 1.5390625 10.9375 C1 13 1 13 -0.75 15.0625 C-3.36196053 16.15081689 -5.19634411 16.30309793 -8 16 C-8.33 15.67 -8.66 15.34 -9 15 C-9.33 17.31 -9.66 19.62 -10 22 C-11.32 22 -12.64 22 -14 22 C-14 14.41 -14 6.82 -14 -1 C-4.4 -2.2 -4.4 -2.2 0 0 Z M-8 3 C-9.19838209 5.32854463 -9.19838209 5.32854463 -10 8 C-9.01 9.485 -9.01 9.485 -8 11 C-6.68 11 -5.36 11 -4 11 C-3.3121764 8.64632287 -3.3121764 8.64632287 -3 6 C-3.66 5.01 -4.32 4.02 -5 3 C-5.99 3 -6.98 3 -8 3 Z " fill="#29A8EA" transform="translate(218,24)"/>
<path d="M0 0 C2 1.5625 2 1.5625 3 3 C2.34 4.32 1.68 5.64 1 7 C0.443125 6.67 -0.11375 6.34 -0.6875 6 C-3.32401158 4.85988688 -5.15554856 4.7693688 -8 5 C-9.2245178 6.00469623 -9.2245178 6.00469623 -9.1328125 8.03125 C-9.13023438 8.8459375 -9.12765625 9.660625 -9.125 10.5 C-9.12757812 11.3146875 -9.13015625 12.129375 -9.1328125 12.96875 C-9.2245178 14.99530377 -9.2245178 14.99530377 -8 16 C-5.54207971 16.33343551 -5.54207971 16.33343551 -3 16 C-2.34 15.01 -1.68 14.02 -1 13 C0.65 13.66 2.3 14.32 4 15 C2.19587357 18.26460973 1.16605307 19.88929795 -2 22 C-6.19006145 22.23149511 -9.89581262 21.66251243 -13.5 19.5 C-15.73017501 15.78304164 -16.18686845 12.30544908 -16 8 C-14.79264122 4.37792366 -13.6546128 2.57979991 -10.8125 0.0625 C-6.71873776 -1.4840324 -4.27526773 -0.96538304 0 0 Z " fill="#29A8EA" transform="translate(80,18)"/>
<path d="M0 0 C1.35439668 2.70879335 1.06501451 5.00933268 1 8 C-2.3 8 -5.6 8 -9 8 C-8.67 8.66 -8.34 9.32 -8 10 C-4.535 9.505 -4.535 9.505 -1 9 C-0.34 10.32 0.32 11.64 1 13 C-1.34374538 15.16345727 -2.74584457 15.96214706 -5.9375 16.4375 C-9.91302153 15.86956835 -11.42506202 15.10507227 -14 12 C-14.80740141 7.84873802 -14.64711453 4.29422906 -12.75 0.5 C-8.49402836 -3.14797569 -5.04407348 -1.80825276 0 0 Z M-8 3 C-8.33 3.66 -8.66 4.32 -9 5 C-7.35 5 -5.7 5 -4 5 C-4 4.34 -4 3.68 -4 3 C-5.32 3 -6.64 3 -8 3 Z " fill="#29A8EA" transform="translate(99,24)"/>
<path d="M0 0 C1 1 1 1 1.09765625 3.50390625 C1.08605469 4.51324219 1.07445312 5.52257812 1.0625 6.5625 C1.05347656 7.57441406 1.04445312 8.58632813 1.03515625 9.62890625 C1.02355469 10.41136719 1.01195312 11.19382812 1 12 C1.66 12 2.32 12 3 12 C3.33 13.32 3.66 14.64 4 16 C0.98968256 16.93423645 0.13349732 17.04449911 -3 16 C-3.99 16.185625 -4.98 16.37125 -6 16.5625 C-9 17 -9 17 -12 15 C-13.02305989 12.63909255 -13.08969004 11.38118268 -12.5 8.875 C-10.21550432 6.01938041 -7.46869608 5.77082135 -4 5 C-6.31 5.33 -8.62 5.66 -11 6 C-11.625 4.125 -11.625 4.125 -12 2 C-8.27604692 -1.72395308 -4.94737734 -1.09941719 0 0 Z M-6.625 10.5 C-7.07875 10.995 -7.5325 11.49 -8 12 C-6.68 12 -5.36 12 -4 12 C-3.67 11.01 -3.34 10.02 -3 9 C-5.12364481 8.77390663 -5.12364481 8.77390663 -6.625 10.5 Z " fill="#29A8EA" transform="translate(145,23)"/>
<path d="M0 0 C1.65 0 3.3 0 5 0 C5 3.96 5 7.92 5 12 C6.32 12 7.64 12 9 12 C9.33 8.04 9.66 4.08 10 0 C11.65 0 13.3 0 15 0 C15 5.28 15 10.56 15 16 C13.02 16 11.04 16 9 16 C8.67 16.33 8.34 16.66 8 17 C4.5 16.6875 4.5 16.6875 1 16 C-0.50156874 12.99686252 -0.09281204 10.20932478 -0.0625 6.875 C-0.05347656 5.59367187 -0.04445312 4.31234375 -0.03515625 2.9921875 C-0.02355469 2.00476563 -0.01195312 1.01734375 0 0 Z " fill="#29A7E9" transform="translate(150,23)"/>
<path d="M0 0 C2 2 2 2 2.1953125 5.2578125 C2.16050781 7.17207031 2.16050781 7.17207031 2.125 9.125 C2.10695313 10.40632813 2.08890625 11.68765625 2.0703125 13.0078125 C2.04710938 13.99523438 2.02390625 14.98265625 2 16 C0.35 16 -1.3 16 -3 16 C-3.33 12.37 -3.66 8.74 -4 5 C-4.99 5 -5.98 5 -7 5 C-7.33 8.63 -7.66 12.26 -8 16 C-9.65 16 -11.3 16 -13 16 C-13 10.72 -13 5.44 -13 0 C-4.16544503 -1.34764398 -4.16544503 -1.34764398 0 0 Z " fill="#29A9EA" transform="translate(116,23)"/>
<path d="M0 0 C0.33 1.32 0.66 2.64 1 4 C-2 5 -2 5 -5 5 C-4.21625 5.28875 -3.4325 5.5775 -2.625 5.875 C0 7 0 7 2 9 C1.8125 12 1.8125 12 1 15 C-2.48868651 17.32579101 -3.89718519 17.41865457 -8 17 C-10.375 15.5 -10.375 15.5 -12 14 C-11.34 12.68 -10.68 11.36 -10 10 C-8.02 10.66 -6.04 11.32 -4 12 C-4.8971875 11.566875 -4.8971875 11.566875 -5.8125 11.125 C-8 10 -8 10 -11 8 C-11.5 5.0625 -11.5 5.0625 -11 2 C-7.31130117 -1.36322541 -4.68898981 -1.19950902 0 0 Z " fill="#28A9EA" transform="translate(233,23)"/>
<path d="M0 0 C1.32 0 2.64 0 4 0 C4 1.32 4 2.64 4 4 C5.32 4 6.64 4 8 4 C8 5.32 8 6.64 8 8 C6.68 8 5.36 8 4 8 C4 10.64 4 13.28 4 16 C5.32 16 6.64 16 8 16 C8.33 17.32 8.66 18.64 9 20 C5.6875 20.6875 5.6875 20.6875 2 21 C0.28125 19.84375 0.28125 19.84375 -1 18 C-1.29296875 15.51953125 -1.29296875 15.51953125 -1.1875 12.8125 C-1.16042969 11.91144531 -1.13335937 11.01039062 -1.10546875 10.08203125 C-1.07066406 9.39496094 -1.03585938 8.70789062 -1 8 C-1.99 8 -2.98 8 -4 8 C-4 6.68 -4 5.36 -4 4 C-3.01 4 -2.02 4 -1 4 C-0.67 2.68 -0.34 1.36 0 0 Z " fill="#29A7E9" transform="translate(123,19)"/>
<path d="M0 0 C3.3 0 6.6 0 10 0 C10 1.32 10 2.64 10 4 C8.68 4.33 7.36 4.66 6 5 C5.34 8.63 4.68 12.26 4 16 C2.68 16 1.36 16 0 16 C0 10.72 0 5.44 0 0 Z " fill="#29A8EA" transform="translate(169,23)"/>
<path d="M0 0 C2.64 0 5.28 0 8 0 C8 2.64 8 5.28 8 8 C7.34 7.34 6.68 6.68 6 6 C6 4.68 6 3.36 6 2 C4.35 2 2.7 2 1 2 C0.67 2.66 0.34 3.32 0 4 C0 2.68 0 1.36 0 0 Z " fill="#5A9DEB" transform="translate(24,24)"/>
<path d="M0 0 C0 0.66 0 1.32 0 2 C-2.95664519 3.4783226 -5.74229737 3.06032783 -9 3 C-9 2.34 -9 1.68 -9 1 C-5.846632 0.29925156 -3.27275026 0 0 0 Z " fill="#4DA2EB" transform="translate(48,23)"/>
<path d="" fill="#00FFFF" transform="translate(0,0)"/>
</svg>
