<?xml version="1.0" encoding="UTF-8"?>
<svg version="1.1" xmlns="http://www.w3.org/2000/svg" width="1308" height="301">
<path d="M0 0 C1.12890625 1.3515625 1.12890625 1.3515625 1.12890625 3.3515625 C2.61390625 3.8465625 2.61390625 3.8465625 4.12890625 4.3515625 C16.11164435 20.66481786 18.49459261 36.83512735 18.25390625 56.6640625 C18.21265625 61.5109375 18.17140625 66.3578125 18.12890625 71.3515625 C31.65890625 71.3515625 45.18890625 71.3515625 59.12890625 71.3515625 C59.05047342 62.06396228 59.05047342 62.06396228 58.94873047 52.77661133 C58.90044763 41.31566769 59.24443996 30.31120478 64.87890625 20.1015625 C65.40798584 19.09706055 65.40798584 19.09706055 65.94775391 18.07226562 C71.75462667 7.22016329 71.75462667 7.22016329 75.12890625 3.3515625 C75.78890625 3.3515625 76.44890625 3.3515625 77.12890625 3.3515625 C77.51755859 2.46210937 77.51755859 2.46210937 77.9140625 1.5546875 C79.21635096 -0.80701891 80.52189103 -2.15730196 82.56640625 -3.8984375 C83.46166016 -4.67960937 83.46166016 -4.67960937 84.375 -5.4765625 C86.12890625 -6.6484375 86.12890625 -6.6484375 89.12890625 -6.6484375 C89.12890625 -7.3084375 89.12890625 -7.9684375 89.12890625 -8.6484375 C106.51769695 -17.83291359 123.760744 -20.37701771 142.94140625 -14.8359375 C158.08216594 -9.7890176 171.06404537 1.65962823 179.12890625 15.3515625 C187.04204901 31.88437862 188.15232835 48.75898721 183.12890625 66.3515625 C181.97338694 69.45951099 180.65007576 72.40776078 179.12890625 75.3515625 C178.80019531 76.07085937 178.47148437 76.79015625 178.1328125 77.53125 C177.12890625 79.3515625 177.12890625 79.3515625 175.12890625 80.3515625 C174.0638019 82.11092515 173.15514412 83.9232059 172.2265625 85.7578125 C171.12890625 87.3515625 171.12890625 87.3515625 168.12890625 88.3515625 C167.79890625 89.3415625 167.46890625 90.3315625 167.12890625 91.3515625 C166.46890625 91.3515625 165.80890625 91.3515625 165.12890625 91.3515625 C165.12890625 92.0115625 165.12890625 92.6715625 165.12890625 93.3515625 C160.03054618 97.89810007 153.92284127 101.17867664 147.81640625 104.1640625 C146.66527344 104.72738281 145.51414062 105.29070312 144.328125 105.87109375 C133.8942909 110.01893281 122.34605226 109.61526931 111.31640625 109.4765625 C104.29359375 109.4146875 104.29359375 109.4146875 97.12890625 109.3515625 C97.12890625 122.8815625 97.12890625 136.4115625 97.12890625 150.3515625 C104.30640625 150.25875 104.30640625 150.25875 111.62890625 150.1640625 C130.92773763 150.11305766 150.13200882 151.61635434 165.12890625 165.3515625 C165.12890625 166.0115625 165.12890625 166.6715625 165.12890625 167.3515625 C166.11890625 167.6815625 167.10890625 168.0115625 168.12890625 168.3515625 C168.12890625 169.0115625 168.12890625 169.6715625 168.12890625 170.3515625 C168.78890625 170.3515625 169.44890625 170.3515625 170.12890625 170.3515625 C181.282823 182.94469432 186.91482954 199.51091886 186.41796875 216.24609375 C185.12259537 230.16260506 181.41013953 241.06034426 172.87890625 252.0390625 C172.34394531 252.75900391 171.80898438 253.47894531 171.2578125 254.22070312 C167.43348563 259.20322874 163.30466004 262.82346753 158.12890625 266.3515625 C157.48276367 266.81425537 156.83662109 267.27694824 156.17089844 267.75366211 C143.44739745 276.75027651 125.60463444 277.98147445 110.62890625 275.6640625 C100.42983593 273.53801723 91.48406589 269.51846604 83.12890625 263.3515625 C82.13890625 262.6915625 81.14890625 262.0315625 80.12890625 261.3515625 C80.12890625 260.6915625 80.12890625 260.0315625 80.12890625 259.3515625 C79.13890625 259.0215625 78.14890625 258.6915625 77.12890625 258.3515625 C75.52623851 256.29596692 74.06501885 254.26758052 72.62890625 252.1015625 C72.23832031 251.52792969 71.84773437 250.95429688 71.4453125 250.36328125 C60.96322971 234.86956292 58.76160773 220.61135102 59.00390625 202.0390625 C59.04515625 197.5221875 59.08640625 193.0053125 59.12890625 188.3515625 C45.59890625 188.3515625 32.06890625 188.3515625 18.12890625 188.3515625 C18.19078125 192.9715625 18.25265625 197.5915625 18.31640625 202.3515625 C18.3686689 221.47149428 16.72095916 240.51097028 3.12890625 255.3515625 C2.46890625 255.3515625 1.80890625 255.3515625 1.12890625 255.3515625 C1.06574219 255.93035156 1.00257812 256.50914062 0.9375 257.10546875 C-1.2835416 263.27502875 -10.47562085 267.30322235 -16.05859375 270.1640625 C-17.6542941 270.91157512 -19.25808788 271.6421636 -20.87109375 272.3515625 C-21.55945313 272.65964844 -22.2478125 272.96773438 -22.95703125 273.28515625 C-38.39071849 279.65994011 -57.54423549 277.06179147 -72.6015625 270.953125 C-85.30298982 264.73139835 -95.91792836 254.18394124 -101.87109375 241.3515625 C-102.23976563 240.56007813 -102.6084375 239.76859375 -102.98828125 238.953125 C-109.79363477 223.20643109 -109.49153191 205.99896782 -104.02734375 189.859375 C-100.65346131 181.68643564 -95.73765094 173.0409956 -88.87109375 167.3515625 C-88.21109375 167.3515625 -87.55109375 167.3515625 -86.87109375 167.3515625 C-86.87109375 166.6915625 -86.87109375 166.0315625 -86.87109375 165.3515625 C-71.73763796 151.82211354 -53.44861625 149.98271713 -34.05859375 150.2265625 C-29.37671875 150.2678125 -24.69484375 150.3090625 -19.87109375 150.3515625 C-19.87109375 136.8215625 -19.87109375 123.2915625 -19.87109375 109.3515625 C-28.82959736 109.42996483 -28.82959736 109.42996483 -37.7878418 109.53173828 C-49.1305654 109.58121755 -60.02155305 109.17526627 -70.12109375 103.6015625 C-71.1255957 103.07248291 -71.1255957 103.07248291 -72.15039062 102.53271484 C-83.00249296 96.72584208 -83.00249296 96.72584208 -86.87109375 93.3515625 C-86.87109375 92.6915625 -86.87109375 92.0315625 -86.87109375 91.3515625 C-88.19109375 91.0215625 -89.51109375 90.6915625 -90.87109375 90.3515625 C-90.87109375 89.6915625 -90.87109375 89.0315625 -90.87109375 88.3515625 C-91.53109375 88.3515625 -92.19109375 88.3515625 -92.87109375 88.3515625 C-100.64391962 79.81262649 -104.71035804 68.50428296 -106.87109375 57.3515625 C-107.05414063 56.5471875 -107.2371875 55.7428125 -107.42578125 54.9140625 C-110.51419775 37.14212195 -104.77516547 21.32468418 -95.5546875 6.5390625 C-93.87109375 4.3515625 -93.87109375 4.3515625 -90.87109375 3.3515625 C-90.54109375 2.3615625 -90.21109375 1.3715625 -89.87109375 0.3515625 C-87.57422296 -1.56737929 -85.2946061 -3.34164829 -82.87109375 -5.0859375 C-82.18990479 -5.5802124 -81.50871582 -6.0744873 -80.80688477 -6.58374023 C-76.05490761 -9.96398938 -71.40906888 -12.74365624 -65.87109375 -14.6484375 C-64.88109375 -15.0403125 -63.89109375 -15.4321875 -62.87109375 -15.8359375 C-40.22943043 -21.96805465 -17.29611216 -15.23791092 0 0 Z M-60.87109375 25.3515625 C-61.20109375 26.3415625 -61.53109375 27.3315625 -61.87109375 28.3515625 C-62.86109375 28.6815625 -63.85109375 29.0115625 -64.87109375 29.3515625 C-69.19685299 35.16392069 -70.67680513 41.22709095 -70.36328125 48.3828125 C-69.29582028 54.821466 -66.15998408 61.33930087 -60.87109375 65.3515625 C-60.21109375 65.3515625 -59.55109375 65.3515625 -58.87109375 65.3515625 C-58.87109375 66.0115625 -58.87109375 66.6715625 -58.87109375 67.3515625 C-51.27432774 72.37650668 -43.63999525 71.81247776 -34.87109375 71.6015625 C-33.41408706 71.58146586 -31.9570536 71.56322068 -30.5 71.546875 C-26.95646825 71.50313151 -23.41395498 71.43428017 -19.87109375 71.3515625 C-19.77128297 67.10154284 -19.69918863 62.85216655 -19.65136719 58.60131836 C-19.63140624 57.15913998 -19.60422712 55.7170409 -19.56933594 54.27514648 C-19.32851641 44.05802382 -20.30938308 36.7988847 -25.99609375 28.1015625 C-31.49797068 22.83889761 -37.21212437 20.08141822 -44.87109375 19.7265625 C-50.8683524 19.98259036 -56.03460321 21.75207793 -60.87109375 25.3515625 Z M103.12890625 29.3515625 C98.69440679 35.38613909 97.00034922 39.85508927 97.03125 47.42578125 C97.03266495 48.1096138 97.0340799 48.79344635 97.03553772 49.4980011 C97.04112749 51.67839972 97.05367803 53.85869501 97.06640625 56.0390625 C97.07142258 57.51887872 97.07598525 58.99869656 97.08007812 60.47851562 C97.09109354 64.10289807 97.10835113 67.7272202 97.12890625 71.3515625 C101.39723606 71.45121819 105.66493094 71.52339641 109.93408203 71.57128906 C111.38309542 71.59127545 112.8320295 71.61847447 114.28076172 71.65332031 C125.76299033 71.93614339 125.76299033 71.93614339 136.12890625 67.3515625 C136.83402344 66.90554687 137.53914063 66.45953125 138.265625 66 C143.96284795 61.32167587 147.35845295 55.72330129 148.64453125 48.42578125 C149.10192806 40.41094166 146.49083169 34.94637834 142.12890625 28.3515625 C141.46890625 28.3515625 140.80890625 28.3515625 140.12890625 28.3515625 C139.63390625 26.8665625 139.63390625 26.8665625 139.12890625 25.3515625 C127.27923851 16.53262739 112.92904223 18.89808412 103.12890625 29.3515625 Z M18.12890625 109.3515625 C18.12890625 122.8815625 18.12890625 136.4115625 18.12890625 150.3515625 C31.65890625 150.3515625 45.18890625 150.3515625 59.12890625 150.3515625 C59.12890625 136.8215625 59.12890625 123.2915625 59.12890625 109.3515625 C45.59890625 109.3515625 32.06890625 109.3515625 18.12890625 109.3515625 Z M-58.87109375 192.3515625 C-59.75796875 192.9290625 -60.64484375 193.5065625 -61.55859375 194.1015625 C-67.18387226 199.57480645 -70.00084687 205.58983116 -70.30859375 213.4140625 C-70.2380607 220.45169391 -68.43890249 225.02245231 -63.87109375 230.3515625 C-61.3652187 232.66061594 -58.79249133 234.60108946 -55.87109375 236.3515625 C-55.2575 236.72410156 -54.64390625 237.09664062 -54.01171875 237.48046875 C-48.49659338 239.72476247 -41.60528427 239.18711322 -36.0078125 237.4765625 C-28.34459382 233.94148135 -23.77993711 229.05009893 -20.5148468 221.30108643 C-19.47486879 218.15164581 -19.5370843 215.18365487 -19.578125 211.88671875 C-19.58449226 210.86945961 -19.58449226 210.86945961 -19.59098816 209.83164978 C-19.60761434 207.69202848 -19.64523201 205.55339303 -19.68359375 203.4140625 C-19.69866153 201.95248768 -19.71234625 200.49089792 -19.72460938 199.02929688 C-19.75746398 195.46973853 -19.80913134 191.91074694 -19.87109375 188.3515625 C-24.13942356 188.25190681 -28.40711844 188.17972859 -32.67626953 188.13183594 C-34.12528292 188.11184955 -35.574217 188.08465053 -37.02294922 188.04980469 C-48.498859 187.77647177 -48.498859 187.77647177 -58.87109375 192.3515625 Z M97.12890625 188.3515625 C97.02925056 192.61989231 96.95707234 196.88758719 96.90917969 201.15673828 C96.8891933 202.60575167 96.86199428 204.05468575 96.82714844 205.50341797 C96.6359522 213.6629986 96.49106342 220.34002058 101.12890625 227.3515625 C101.78890625 227.3515625 102.44890625 227.3515625 103.12890625 227.3515625 C103.33515625 227.9084375 103.54140625 228.4653125 103.75390625 229.0390625 C106.17743461 233.11499656 109.59195975 235.58308925 113.75390625 237.6640625 C122.47178302 239.43992629 129.37444283 238.92929188 137.265625 234.73828125 C139.42929484 233.40414364 139.42929484 233.40414364 140.12890625 230.3515625 C141.11890625 230.0215625 142.10890625 229.6915625 143.12890625 229.3515625 C147.51209634 223.46203666 148.87989741 217.42183728 148.5546875 210.18359375 C147.92350877 205.98538662 146.48473983 202.84863034 144.12890625 199.3515625 C143.53078125 198.4440625 142.93265625 197.5365625 142.31640625 196.6015625 C137.68837253 191.84129924 131.35628738 188.56624417 124.71557617 188.12451172 C122.80675659 188.14022217 122.80675659 188.14022217 120.859375 188.15625 C120.17837234 188.1590799 119.49736969 188.16190979 118.79573059 188.16482544 C116.6357717 188.17595725 114.47623831 188.20104793 112.31640625 188.2265625 C110.84570914 188.23660139 109.37500549 188.24572565 107.90429688 188.25390625 C104.31236339 188.27587337 100.7206764 188.3103543 97.12890625 188.3515625 Z " fill="#2DA8E9" transform="translate(110.87109375,21.6484375)"/>
<path d="M0 0 C12.49960959 8.94426446 18.89409561 21.50613327 21.72338867 36.4050293 C24.38559848 54.67047198 23.75540866 76.73160965 13.18359375 92.5625 C3.52745619 104.95639303 -7.29354584 111.96995546 -22.81640625 114.5625 C-39.27559807 116.05834284 -55.07856156 114.4381959 -68.81640625 104.5625 C-69.86828125 103.82 -70.92015625 103.0775 -72.00390625 102.3125 C-85.43324045 89.18159545 -89.60007028 71.54761881 -90.00390625 53.375 C-89.80588797 37.79756204 -86.74372907 23.47001461 -77.81640625 10.5625 C-77.37683594 9.92570312 -76.93726563 9.28890625 -76.484375 8.6328125 C-59.54921417 -13.32921163 -21.79252958 -13.89887502 0 0 Z M-55.8359375 21.109375 C-65.79711039 33.44786923 -64.76307164 50.6445287 -63.81640625 65.5625 C-62.60155434 74.11641324 -59.25768581 81.2741662 -53.00390625 87.25 C-45.55329964 92.65534205 -37.84332315 94.33623573 -28.81640625 93.5625 C-20.32790825 92.01196941 -13.98772139 88.41950489 -8.50390625 81.75 C-1.04290113 67.65699033 -0.26000354 48.13843105 -4.91015625 33.00390625 C-5.20921875 32.19824219 -5.50828125 31.39257812 -5.81640625 30.5625 C-6.09484375 29.80839844 -6.37328125 29.05429688 -6.66015625 28.27734375 C-9.80519952 21.02476553 -15.59232031 16.54636158 -22.81640625 13.5625 C-34.95943901 10.68280898 -46.65795702 12.33749985 -55.8359375 21.109375 Z " fill="#29A8EA" transform="translate(1087.81640625,101.4375)"/>
<path d="M0 0 C10.90028734 7.81701139 14.70775512 18.20384134 17.0625 31.10546875 C17.34186851 33.2638775 17.50556872 35.38452734 17.59765625 37.55859375 C17.65759766 38.68587891 17.65759766 38.68587891 17.71875 39.8359375 C18.10958218 54.0208467 15.69090318 67.895271 6.41015625 78.99609375 C-0.50001113 86.18359226 -8.41152255 89.59985327 -18.29174805 89.85107422 C-25.84790012 89.91873879 -32.8910504 89.93062914 -39.40234375 85.55859375 C-41.38234375 83.57859375 -43.36234375 81.59859375 -45.40234375 79.55859375 C-45.73234375 94.40859375 -46.06234375 109.25859375 -46.40234375 124.55859375 C-54.32234375 124.55859375 -62.24234375 124.55859375 -70.40234375 124.55859375 C-70.40234375 82.64859375 -70.40234375 40.73859375 -70.40234375 -2.44140625 C-62.48234375 -2.44140625 -54.56234375 -2.44140625 -46.40234375 -2.44140625 C-46.07234375 0.85859375 -45.74234375 4.15859375 -45.40234375 7.55859375 C-44.78359375 6.67171875 -44.16484375 5.78484375 -43.52734375 4.87109375 C-33.54259075 -7.20216059 -12.65365867 -7.5921952 0 0 Z M-42.21484375 22.05859375 C-47.36923096 28.95432799 -48.31227801 39.23016772 -47.40234375 47.55859375 C-46.22860951 55.17808518 -44.58967238 61.57961401 -38.40234375 66.55859375 C-33.1233632 69.64629936 -28.37769042 70.31214546 -22.40234375 69.55859375 C-16.49315645 67.85594656 -12.54122103 64.80625236 -9.40234375 59.55859375 C-5.87376624 49.93629536 -5.51103972 36.32023236 -9.02734375 26.62109375 C-11.53861771 21.58967208 -14.8487002 19.00795901 -19.71484375 16.24609375 C-28.67186712 13.95476219 -35.39201631 15.99385824 -42.21484375 22.05859375 Z " fill="#2AA8EA" transform="translate(1202.40234375,126.44140625)"/>
<path d="M0 0 C5.20617489 4.22618903 10.22309278 9.34009576 12 16 C11.48550322 19.58591361 11.06738831 19.94672442 8.015625 22.359375 C6.76842576 23.1687277 5.51280563 23.96521998 4.25 24.75 C3.62867188 25.16121094 3.00734375 25.57242188 2.3671875 25.99609375 C-0.30760122 27.69464102 -2.64172779 28.93117935 -5.765625 29.53125 C-8 29 -8 29 -9.625 27.171875 C-10.305625 25.97304687 -10.305625 25.97304687 -11 24.75 C-14.74545448 18.70037985 -18.52630884 15.59731797 -25.34765625 13.54296875 C-36.20845332 11.31962443 -45.10627736 13.21912132 -54.3125 19.125 C-62.99284257 28.41094787 -64.38314354 40.11135073 -64.3125 52.3125 C-64.30686035 53.32779785 -64.3012207 54.3430957 -64.29541016 55.38916016 C-64.11519135 66.5145486 -62.73983839 76.47394778 -55 85 C-48.22300657 90.72466526 -40.3821275 92.50883454 -31.65625 92.3203125 C-25.0074376 91.51854395 -17.53354503 89.06690326 -13 84 C-11.14468715 80.74640151 -9.55516809 77.40499962 -8 74 C-7.33875517 72.6639695 -6.67404321 71.32961948 -6 70 C-1.13127946 70.59559106 2.59328841 72.72477415 6.8125 75.0625 C7.50537109 75.43955078 8.19824219 75.81660156 8.91210938 76.20507812 C10.61128985 77.13083852 12.30609425 78.06462312 14 79 C11.21639484 91.21911185 5.63881673 100.69906735 -4.875 107.75 C-18.1998652 115.60030818 -36.87017186 116.23188342 -51.6875 112.8125 C-65.68003898 108.50557665 -76.87367075 99.94374089 -84 87 C-92.80527808 67.70332676 -93.44583069 44.7620534 -86.8125 24.6875 C-84.38252224 18.38518926 -81.31578587 13.18255458 -77 8 C-76.40445312 7.28070313 -75.80890625 6.56140625 -75.1953125 5.8203125 C-57.26123836 -13.89972753 -21.16368225 -14.40170697 0 0 Z " fill="#29A8EA" transform="translate(431,102)"/>
<path d="M0 0 C8.40617817 7.04061758 12.31810865 16.67962033 13.5625 27.3125 C13.6749761 29.87329316 13.73704131 32.43677068 13.75 35 C13.76417969 36.28261719 13.77835938 37.56523437 13.79296875 38.88671875 C13.5625 42.3125 13.5625 42.3125 11.5625 46.3125 C-7.5775 46.3125 -26.7175 46.3125 -46.4375 46.3125 C-43.74130337 56.72354127 -43.74130337 56.72354127 -36.9375 64.125 C-30.25296544 67.30015392 -22.08279977 67.45641818 -15.0625 65.1875 C-10.43590934 63.20196109 -7.6804811 59.79846219 -5.4375 55.3125 C-0.89943432 55.86715247 2.04600118 57.65485424 5.8125 60.1875 C6.86953125 60.88617188 7.9265625 61.58484375 9.015625 62.3046875 C11.5625 64.3125 11.5625 64.3125 12.5625 67.3125 C7.58039408 76.59203647 0.62625876 82.83873739 -9.3125 86.1875 C-23.24549879 89.48432225 -38.96365571 88.34340087 -51.6015625 81.45703125 C-61.0491998 75.56733396 -66.12198684 66.78254157 -69.4375 56.3125 C-72.42140026 42.24852257 -71.77628792 25.73662154 -64.75 13.0625 C-58.43652637 3.3983868 -50.56409773 -2.86791666 -39.375 -6 C-26.15195747 -8.41057235 -11.39039207 -7.71537878 0 0 Z M-39.265625 15.8984375 C-43.30607887 20.39001001 -45.4375 24.16650259 -45.4375 30.3125 C-33.5575 30.3125 -21.6775 30.3125 -9.4375 30.3125 C-10.42068293 20.34669938 -10.42068293 20.34669938 -16.625 13.5 C-24.20222951 10.30072532 -32.80230976 10.29137342 -39.265625 15.8984375 Z " fill="#29A8EA" transform="translate(526.4375,128.6875)"/>
<path d="M0 0 C5.75081214 6.61343397 8.55581313 14.00151835 8.68945312 22.7253418 C8.70617065 23.6594841 8.72288818 24.5936264 8.7401123 25.55607605 C8.75368774 26.55206314 8.76726318 27.54805023 8.78125 28.57421875 C8.79965942 29.60561478 8.81806885 30.6370108 8.83703613 31.69966125 C8.91560778 36.10574133 8.98364395 40.511968 9.05224609 44.91821289 C9.10387489 48.13696061 9.16113997 51.35557344 9.21875 54.57421875 C9.23232544 55.57627853 9.24590088 56.57833832 9.2598877 57.61076355 C9.27660522 58.53544937 9.29332275 59.46013519 9.31054688 60.4128418 C9.32307495 61.2282695 9.33560303 62.0436972 9.34851074 62.88383484 C9.37943031 64.94892088 9.37943031 64.94892088 10.5 66.875 C13.14 66.875 15.78 66.875 18.5 66.875 C18.8396019 68.74887477 19.17138691 70.62416697 19.5 72.5 C19.685625 73.54414063 19.87125 74.58828125 20.0625 75.6640625 C20.48715797 78.78074865 20.57545206 81.73430812 20.5 84.875 C12.90902601 87.75910866 3.57796626 88.66403881 -4.0625 85.375 C-8.22001287 82.90731494 -10.36541361 79.10312304 -12.5 74.875 C-12.96148438 75.47828125 -13.42296875 76.0815625 -13.8984375 76.703125 C-18.72523981 82.6173887 -22.90787188 86.34432901 -30.5 87.875 C-40.64260816 88.80690631 -50.04116898 88.57819155 -58.3125 82.1875 C-63.12814402 77.71822481 -66.26946799 71.36401325 -66.703125 64.80078125 C-66.89727778 49.83483776 -66.89727778 49.83483776 -61.68359375 43.7578125 C-52.61966255 34.9046704 -41.20362889 33.17861623 -29.2043457 30.7121582 C-22.40630836 29.35140199 -22.40630836 29.35140199 -16.5 25.875 C-15.42021718 22.16324656 -14.93228398 20.01043204 -16.6875 16.5 C-20.15713755 13.38929047 -24.53603327 13.59069841 -29.00390625 13.6640625 C-38.23851026 14.44445157 -45.03834432 18.41334432 -51.5 24.875 C-53.8515625 24.86328125 -53.8515625 24.86328125 -56.5 23.875 C-58.7734375 21.29296875 -58.7734375 21.29296875 -60.875 18.0625 C-61.58398438 17.00417969 -62.29296875 15.94585937 -63.0234375 14.85546875 C-64.5 11.875 -64.5 11.875 -64.5390625 9.73828125 C-60.71320891 2.87763403 -50.70884674 -1.63013501 -43.5 -4.125 C-42.86449219 -4.34929687 -42.22898437 -4.57359375 -41.57421875 -4.8046875 C-28.82802381 -8.41817189 -11.0007566 -7.80609244 0 0 Z M-18.25 43.1875 C-21.77726986 44.75030693 -25.29035819 45.5278945 -29.0625 46.3125 C-34.12005467 47.43446328 -37.66942812 48.35501503 -41.5 51.875 C-43.42693706 54.97485526 -43.50600905 56.70674654 -43.375 60.375 C-42.42080906 64.19176375 -41.21834365 66.0742823 -38.5 68.875 C-34.55127576 70.84936212 -29.80383233 70.31329693 -25.5 69.875 C-21.04853749 67.68973658 -18.31114855 64.9355479 -15.5 60.875 C-14.24566542 57.11199626 -14.39304578 53.60289091 -14.4375 49.6875 C-14.44201172 48.93791016 -14.44652344 48.18832031 -14.45117188 47.41601562 C-14.46293646 45.56897617 -14.48087135 43.72197787 -14.5 41.875 C-15.85744573 41.80321174 -15.85744573 41.80321174 -18.25 43.1875 Z " fill="#29A8EA" transform="translate(793.5,128.125)"/>
<path d="M0 0 C7.92 0 15.84 0 24 0 C24.01981934 1.87703613 24.03963867 3.75407227 24.06005859 5.68798828 C24.12793969 11.90266149 24.20472332 18.11717532 24.28752708 24.33166695 C24.33738744 28.09802724 24.38371796 31.86436089 24.421875 35.63085938 C24.458858 39.26847139 24.50525239 42.90585468 24.55806351 46.54327011 C24.57653856 47.92823127 24.59167174 49.31324133 24.60334396 50.69827652 C24.62032414 52.64416462 24.6504899 54.58992393 24.68115234 56.53564453 C24.69447601 57.64150909 24.70779968 58.74737366 24.7215271 59.88674927 C25.02048265 63.22899039 25.69163594 65.91203594 27 69 C32.3889827 71.96394048 39.4128717 71.97049019 45.28125 70.3828125 C50.12952237 68.33857826 52.22708719 65.77906438 54.30859375 61 C55.6599547 57.09097849 56.13875666 53.64315637 56.20532227 49.49707031 C56.22526749 48.39623108 56.24521271 47.29539185 56.26576233 46.16119385 C56.29083107 44.38757477 56.29083107 44.38757477 56.31640625 42.578125 C56.33718735 41.36300232 56.35796844 40.14787964 56.37937927 38.89593506 C56.44476828 35.01401427 56.50371051 31.1320258 56.5625 27.25 C56.60569532 24.61848258 56.64930994 21.98697201 56.69335938 19.35546875 C56.80122783 12.9037142 56.90038118 6.45190833 57 0 C64.92 0 72.84 0 81 0 C81 29.7 81 59.4 81 90 C73.41 90 65.82 90 58 90 C57.67 86.04 57.34 82.08 57 78 C55.700625 79.85625 55.700625 79.85625 54.375 81.75 C49.85772448 87.73777036 45.2562835 90.24745465 38 92 C35.32466076 92.20808194 32.79393451 92.33500095 30.125 92.3125 C29.42318604 92.30686035 28.72137207 92.3012207 27.99829102 92.29541016 C19.76902989 92.10321328 13.54995336 90.43259484 7.5 84.71875 C-1.01931694 74.95703268 -0.2908417 61.10473927 -0.1953125 48.92578125 C-0.19157258 47.5066091 -0.18873025 46.08743434 -0.18673706 44.66825867 C-0.17917749 40.97100429 -0.15959711 37.27391233 -0.1373291 33.57672119 C-0.11670317 29.7888 -0.1076999 26.00085203 -0.09765625 22.21289062 C-0.07634218 14.80851187 -0.04122485 7.40429958 0 0 Z " fill="#29A7EA" transform="translate(826,124)"/>
<path d="M0 0 C6.32527736 4.79146547 9.75996203 12.09678445 11.0078125 19.81640625 C11.09352705 22.08504113 11.12554986 24.35597105 11.12133789 26.6262207 C11.12148392 27.29019363 11.12162994 27.95416656 11.1217804 28.63825989 C11.12108733 30.81876974 11.11332349 32.99919269 11.10546875 35.1796875 C11.10360242 36.69711765 11.10217953 38.2145484 11.10118103 39.73197937 C11.09737282 43.7153186 11.08755709 47.69862105 11.07647705 51.6819458 C11.06622639 55.75084943 11.06167559 59.81975904 11.05664062 63.88867188 C11.04593324 71.86460204 11.02835024 79.84049533 11.0078125 87.81640625 C3.4178125 87.81640625 -4.1721875 87.81640625 -11.9921875 87.81640625 C-12.0219165 85.24375977 -12.0219165 85.24375977 -12.05224609 82.61914062 C-12.12025074 76.92734825 -12.19704285 71.2357189 -12.27971458 65.54412079 C-12.32947957 62.09618587 -12.37580972 58.64827869 -12.4140625 55.20019531 C-12.45828106 51.22834602 -12.51784891 47.25679554 -12.578125 43.28515625 C-12.59545181 41.44407288 -12.59545181 41.44407288 -12.61312866 39.5657959 C-12.55693756 28.83554182 -12.55693756 28.83554182 -16.9296875 19.37890625 C-21.41730259 15.97919785 -26.60691791 16.24995567 -31.9921875 16.81640625 C-36.51197351 18.16387227 -39.32353876 20.02458538 -42.3671875 23.62890625 C-46.19965876 31.14644603 -46.32234598 37.99521185 -46.40625 46.3125 C-46.42561615 47.50118179 -46.4449823 48.68986359 -46.4649353 49.91456604 C-46.52449839 53.69427415 -46.5710238 57.47401309 -46.6171875 61.25390625 C-46.65538864 63.82358066 -46.69444161 66.39324255 -46.734375 68.96289062 C-46.83177669 75.24732906 -46.91153196 81.53164149 -46.9921875 87.81640625 C-54.9121875 87.81640625 -62.8321875 87.81640625 -70.9921875 87.81640625 C-70.9921875 58.11640625 -70.9921875 28.41640625 -70.9921875 -2.18359375 C-63.4021875 -2.18359375 -55.8121875 -2.18359375 -47.9921875 -2.18359375 C-47.6621875 1.77640625 -47.3321875 5.73640625 -46.9921875 9.81640625 C-45.8371875 8.41390625 -44.6821875 7.01140625 -43.4921875 5.56640625 C-32.96087553 -6.28830953 -13.60828434 -8.08492187 0 0 Z " fill="#29A8EA" transform="translate(628.9921875,126.18359375)"/>
<path d="M0 0 C2.72007249 1.9853123 5.11663945 4.0892957 7.49609375 6.46875 C7.39071327 10.78934959 4.05839505 13.42132477 1.18359375 16.28125 C0.69697266 16.79623047 0.21035156 17.31121094 -0.29101562 17.84179688 C-1.7421875 19.30078125 -1.7421875 19.30078125 -4.50390625 21.46875 C-8.40078459 21.37201898 -10.55608165 18.84138931 -13.50390625 16.46875 C-17.4122876 14.54504063 -20.6669419 14.17144964 -25.00390625 14.15625 C-26.10734375 14.13949219 -27.21078125 14.12273437 -28.34765625 14.10546875 C-31.84599629 14.50812422 -33.70736714 15.36377381 -36.50390625 17.46875 C-37.83723958 19.80208333 -37.83723958 19.80208333 -37.50390625 22.46875 C-33.9167609 26.86131101 -30.97436571 28.28532968 -25.50390625 29.53125 C-24.16755557 29.85637935 -22.83162402 30.18323568 -21.49609375 30.51171875 C-20.82803711 30.67075684 -20.15998047 30.82979492 -19.47167969 30.99365234 C-9.02836365 33.51507828 1.31532665 36.14700937 7.49609375 45.59375 C11.45389225 52.43744325 11.63207581 60.63056133 9.84765625 68.23046875 C6.8667994 76.54884279 1.66561715 81.81498149 -6.21875 85.64453125 C-12.80352421 88.01955238 -18.80297896 88.83004084 -25.75390625 88.78125 C-26.58583496 88.77633545 -27.41776367 88.7714209 -28.27490234 88.76635742 C-40.02930164 88.54412474 -50.61173944 85.8594558 -59.44140625 77.78125 C-60.46234375 76.6365625 -60.46234375 76.6365625 -61.50390625 75.46875 C-62.16390625 74.80875 -62.82390625 74.14875 -63.50390625 73.46875 C-63.41012695 68.54107394 -60.5254214 65.85444269 -57.19140625 62.59375 C-56.70478516 62.08328125 -56.21816406 61.5728125 -55.71679688 61.046875 C-52.12304183 57.46763041 -52.12304183 57.46763041 -49.34375 57.47265625 C-47.3558518 58.54890687 -45.9823459 59.68989658 -44.37890625 61.28125 C-38.16787454 66.77715226 -31.04765033 69.19821821 -22.7734375 68.78125 C-19.37701567 68.31358434 -17.20082354 67.61245349 -14.50390625 65.46875 C-13.17297465 62.06905189 -13.17297465 62.06905189 -13.50390625 58.46875 C-16.31468573 54.88533919 -18.92501578 53.72334293 -23.25390625 52.53125 C-24.39730469 52.19996094 -25.54070312 51.86867187 -26.71875 51.52734375 C-28.65993193 50.98445386 -30.60117186 50.44176153 -32.54345703 49.90283203 C-42.29339756 47.16628644 -50.31029813 44.65558109 -56.87890625 36.53125 C-60.94885747 28.86095732 -61.76779494 21.15538641 -59.37890625 12.84375 C-56.42959261 5.04233972 -51.65420095 1.08597169 -44.26171875 -2.48828125 C-30.45019291 -7.71162034 -12.84275122 -7.85391338 0 0 Z " fill="#29A8EA" transform="translate(1294.50390625,127.53125)"/>
<path d="M0 0 C0 7.26 0 14.52 0 22 C8.25 22 16.5 22 25 22 C25 27.94 25 33.88 25 40 C16.75 40 8.5 40 0 40 C0.07402069 46.46021925 0.15687217 52.91905939 0.26245117 59.37866211 C0.29568055 61.57552927 0.32371866 63.7724814 0.34643555 65.96948242 C0.38001754 69.12976243 0.43233634 72.28926521 0.48828125 75.44921875 C0.49467117 76.42960617 0.5010611 77.40999359 0.50764465 78.42008972 C0.64679908 85.20183167 0.64679908 85.20183167 4 91 C6.44971624 92.22485812 8.14234461 92.16722808 10.875 92.1875 C11.73867188 92.20167969 12.60234375 92.21585937 13.4921875 92.23046875 C16.14897416 91.98630923 17.67019577 91.23313906 20 90 C20.99 90 21.98 90 23 90 C24.03227862 92.60014527 25.05105152 95.20426369 26.0625 97.8125 C26.35705078 98.55048828 26.65160156 99.28847656 26.95507812 100.04882812 C29.11328125 105.66015625 29.11328125 105.66015625 28 109 C26.07421875 110.1328125 26.07421875 110.1328125 23.6875 111.125 C22.51767578 111.62386719 22.51767578 111.62386719 21.32421875 112.1328125 C12.65304094 115.3681091 0.94398463 115.59889136 -7.75 112.25 C-14.89118104 108.75795039 -19.05628734 104.41609013 -22 97 C-23.85810559 89.88382408 -24.27275435 83.06773287 -24.1953125 75.7421875 C-24.1924826 74.71312286 -24.18965271 73.68405823 -24.18673706 72.62380981 C-24.17564479 69.37408244 -24.15056115 66.12464246 -24.125 62.875 C-24.11495603 60.65625401 -24.10583267 58.43750366 -24.09765625 56.21875 C-24.07574144 50.81239121 -24.04128843 45.40624413 -24 40 C-28.29 40 -32.58 40 -37 40 C-37 34.06 -37 28.12 -37 22 C-32.71 22 -28.42 22 -24 22 C-24 16.06 -24 10.12 -24 4 C-20.37538035 3.33120692 -16.75033937 2.66487017 -13.125 2 C-12.09246094 1.80921875 -11.05992187 1.6184375 -9.99609375 1.421875 C-8.51689453 1.15117188 -8.51689453 1.15117188 -7.0078125 0.875 C-5.64100342 0.62363281 -5.64100342 0.62363281 -4.24658203 0.3671875 C-2 0 -2 0 0 0 Z " fill="#29A8EA" transform="translate(690,102)"/>
<path d="M0 0 C-0.51537952 7.13393752 -1.44005901 14.01812817 -3 21 C-4.84464844 20.93039063 -4.84464844 20.93039063 -6.7265625 20.859375 C-8.3593506 20.82183964 -9.99216511 20.78544138 -11.625 20.75 C-12.43324219 20.71648437 -13.24148438 20.68296875 -14.07421875 20.6484375 C-19.57859882 20.55893539 -22.63496639 21.32910017 -27 25 C-33.53962071 32.6295575 -33.30319315 42.89453184 -33.4140625 52.4765625 C-33.43342865 53.52782318 -33.4527948 54.57908386 -33.4727478 55.66220093 C-33.53199302 58.98305431 -33.57870678 62.30394341 -33.625 65.625 C-33.66323054 67.89194127 -33.70228513 70.15886879 -33.7421875 72.42578125 C-33.83918232 77.95044479 -33.91918757 83.47498187 -34 89 C-41.59 89 -49.18 89 -57 89 C-57 59.3 -57 29.6 -57 -1 C-49.41 -1 -41.82 -1 -34 -1 C-33.67 2.63 -33.34 6.26 -33 10 C-32.38125 8.948125 -31.7625 7.89625 -31.125 6.8125 C-24.02244366 -2.94855508 -10.65834855 -4.9055985 0 0 Z " fill="#29A8EA" transform="translate(989,125)"/>
<path d="M0 0 C6.1055471 -0.02464513 12.21106551 -0.04283371 18.31665039 -0.05493164 C20.39543156 -0.05997288 22.47420916 -0.06680574 24.55297852 -0.07543945 C27.53402586 -0.08751422 30.51502649 -0.09323024 33.49609375 -0.09765625 C34.89921059 -0.10539818 34.89921059 -0.10539818 36.33067322 -0.11329651 C37.19149002 -0.11337204 38.05230682 -0.11344757 38.93920898 -0.11352539 C40.08171364 -0.11685631 40.08171364 -0.11685631 41.24729919 -0.12025452 C43 0 43 0 44 1 C44.1011692 4.09081465 44.13968558 7.15882555 44.1328125 10.25 C44.13376923 11.17844727 44.13472595 12.10689453 44.13571167 13.06347656 C44.13639355 15.03059965 44.13453872 16.99772496 44.13037109 18.96484375 C44.12502295 21.98703026 44.13031582 25.00906815 44.13671875 28.03125 C44.13605797 29.93750033 44.13477681 31.84375057 44.1328125 33.75 C44.13483673 34.66040039 44.13686096 35.57080078 44.13894653 36.50878906 C44.11494969 42.88505031 44.11494969 42.88505031 43 44 C39.90918535 44.1011692 36.84117445 44.13968558 33.75 44.1328125 C32.82155273 44.13376923 31.89310547 44.13472595 30.93652344 44.13571167 C28.96940035 44.13639355 27.00227504 44.13453872 25.03515625 44.13037109 C22.01296974 44.12502295 18.99093185 44.13031582 15.96875 44.13671875 C14.06249967 44.13605797 12.15624943 44.13477681 10.25 44.1328125 C8.88439941 44.13584885 8.88439941 44.13584885 7.49121094 44.13894653 C1.11494969 44.11494969 1.11494969 44.11494969 0 43 C-0.09268999 41.64905018 -0.11747326 40.29332909 -0.11352539 38.93920898 C-0.11344986 38.07839218 -0.11337433 37.21757538 -0.11329651 36.33067322 C-0.10813522 35.39526199 -0.10297394 34.45985077 -0.09765625 33.49609375 C-0.0962413 32.54307877 -0.09482635 31.59006378 -0.09336853 30.60816956 C-0.08775152 27.55124835 -0.07519616 24.49439923 -0.0625 21.4375 C-0.05748719 19.37044376 -0.05292391 17.30338638 -0.04882812 15.23632812 C-0.03777656 10.15752412 -0.02050055 5.0787743 0 0 Z M1 2 C1 15.53 1 29.06 1 43 C14.53 43 28.06 43 42 43 C42 29.47 42 15.94 42 2 C28.47 2 14.94 2 1 2 Z " fill="#9AD7F8" transform="translate(128,129)"/>
<path d="M0 0 C0.71682449 -0.00570007 1.43364899 -0.01140015 2.17219543 -0.01727295 C3.69461587 -0.02673983 5.21705695 -0.0332636 6.73950195 -0.03710938 C9.05522284 -0.04676324 11.37003652 -0.07774707 13.68554688 -0.109375 C15.16535932 -0.1159102 16.64517811 -0.12115864 18.125 -0.125 C18.81272995 -0.1373468 19.5004599 -0.1496936 20.20903015 -0.16241455 C24.82010866 -0.14135181 28.01665449 0.69453736 31.89453125 3.203125 C32.38953125 4.688125 32.38953125 4.688125 32.89453125 6.203125 C30.13176948 5.68044034 27.56844365 5.09442913 24.89453125 4.203125 C22.53898645 4.05133486 20.17978002 3.95413211 17.8203125 3.88671875 C17.13647995 3.86593765 16.4526474 3.84515656 15.74809265 3.82374573 C13.56783915 3.75846346 11.3874672 3.69946483 9.20703125 3.640625 C7.72720139 3.59741947 6.24738342 3.55380453 4.76757812 3.50976562 C1.14335503 3.40280417 -2.48100064 3.30147677 -6.10546875 3.203125 C-6.01145814 7.50850536 -5.90526249 11.81336644 -5.78808594 16.11816406 C-5.74995669 17.58064689 -5.71507661 19.04321838 -5.68359375 20.50585938 C-5.63759164 22.61620632 -5.57965934 24.72595134 -5.51953125 26.8359375 C-5.48811035 28.10324707 -5.45668945 29.37055664 -5.42431641 30.67626953 C-5.11039311 34.14865539 -4.34984276 36.95902014 -3.10546875 40.203125 C-6.98046875 37.578125 -6.98046875 37.578125 -8.10546875 34.203125 C-8.20198685 31.70130303 -8.24548234 29.22820711 -8.23828125 26.7265625 C-8.23923798 26.00070953 -8.2401947 25.27485657 -8.24118042 24.52700806 C-8.24186009 22.99554355 -8.24002064 21.46407614 -8.23583984 19.93261719 C-8.23047306 17.58001299 -8.23579991 15.22759838 -8.2421875 12.875 C-8.24152698 11.38802041 -8.24024637 9.90104094 -8.23828125 8.4140625 C-8.24030548 7.70680023 -8.24232971 6.99953796 -8.24441528 6.27084351 C-8.2106893 -0.69362559 -6.30411952 0.03839177 0 0 Z " fill="#4BA7D7" transform="translate(214.10546875,206.796875)"/>
<path d="M0 0 C-0.99 0.33 -1.98 0.66 -3 1 C-3.99 0.34 -4.98 -0.32 -6 -1 C-13.53367642 -3.47894751 -21.23702098 -5.39386641 -29 -7 C-29 -7.66 -29 -8.32 -29 -9 C-37.66705243 -8.10259403 -46.17636242 -6.89136391 -54.6875 -5 C-55.4407959 -4.8340332 -56.1940918 -4.66806641 -56.97021484 -4.49707031 C-60.79816697 -3.61880679 -64.40510169 -2.58827854 -68 -1 C-68 -1.66 -68 -2.32 -68 -3 C-46.79261784 -14.18207423 -19.87695812 -14.90771859 0 0 Z " fill="#52ADDF" transform="translate(102,15)"/>
<path d="M0 0 C-0.33 0.99 -0.66 1.98 -1 3 C-1.66 3 -2.32 3 -3 3 C-3 3.66 -3 4.32 -3 5 C-8.09642101 9.54480838 -14.22315258 12.8536647 -20.3125 15.875 C-21.46363281 16.44992188 -22.61476563 17.02484375 -23.80078125 17.6171875 C-34.10265277 21.61664634 -46.48758446 20.00493841 -57.3125 19.5625 C-62.159375 19.376875 -67.00625 19.19125 -72 19 C-72 33.52 -72 48.04 -72 63 C-72.33 63 -72.66 63 -73 63 C-73.16925032 58.19881743 -73.32961243 53.3974449 -73.48217773 48.59570312 C-73.53514643 46.96639259 -73.59043267 45.33715551 -73.64819336 43.70800781 C-73.95402468 35.03835473 -74.17595419 26.62366402 -73 18 C-71.96182129 17.97494385 -70.92364258 17.9498877 -69.85400391 17.92407227 C-65.95872122 17.82905912 -62.06357846 17.72907781 -58.16845703 17.62768555 C-56.49075623 17.58468822 -54.81302149 17.54299277 -53.13525391 17.50268555 C-38.31702417 18.35315567 -38.31702417 18.35315567 -24.99462891 14.45922852 C-23 13 -23 13 -19 13 C-19 12.34 -19 11.68 -19 11 C-17.35 11 -15.7 11 -14 11 C-14 10.34 -14 9.68 -14 9 C-13.01 9 -12.02 9 -11 9 C-11 8.34 -11 7.68 -11 7 C-10.01 7 -9.02 7 -8 7 C-7.34 5.68 -6.68 4.36 -6 3 C-5.34 3 -4.68 3 -4 3 C-4 2.34 -4 1.68 -4 1 C-2 0 -2 0 0 0 Z " fill="#3EA4D8" transform="translate(279,110)"/>
<path d="M0 0 C4.4759964 0.70673627 8.90465739 1.5769043 13.33984375 2.5 C18.90543701 3.5461027 24.3675159 4.14032272 30.02734375 4.31640625 C31.18741943 4.35451416 32.34749512 4.39262207 33.54272461 4.43188477 C34.99300049 4.47498779 36.44327637 4.51809082 37.9375 4.5625 C42.578125 4.706875 47.21875 4.85125 52 5 C52 19.52 52 34.04 52 49 C41.77 49 31.54 49 21 49 C21 48.67 21 48.34 21 48 C30.9 48 40.8 48 51 48 C51 34.47 51 20.94 51 7 C42.04149639 7.07840233 42.04149639 7.07840233 33.08325195 7.18017578 C21.40599321 7.23111436 10.45311768 6.56419184 0 1 C0 0.67 0 0.34 0 0 Z " fill="#81CAE9" transform="translate(40,124)"/>
<path d="M0 0 C0.66 0 1.32 0 2 0 C2.556875 0.7425 3.11375 1.485 3.6875 2.25 C7.50336451 6.78778482 12.5875572 9.63642162 18.56640625 10.2734375 C26.12757158 10.52974819 31.70992732 9.35162261 38 5 C38.33 4.34 38.66 3.68 39 3 C39.66 3 40.32 3 41 3 C40.58578031 7.83256305 38.53586014 9.82679218 35 13 C34.505 12.01 34.505 12.01 34 11 C33.34 11 32.68 11 32 11 C32 11.66 32 12.32 32 13 C24.10610038 14.78343658 15.93434076 15.56558103 8.6875 11.5 C7.44029814 10.69390903 6.20313956 9.87048857 5 9 C5 8.34 5 7.68 5 7 C4.360625 6.773125 3.72125 6.54625 3.0625 6.3125 C1 5 1 5 0.25 2.375 C0.1675 1.59125 0.085 0.8075 0 0 Z " fill="#4EAADC" transform="translate(212,249)"/>
<path d="M0 0 C0 0.66 0 1.32 0 2 C-6.39766379 2.25088878 -6.39766379 2.25088878 -9.31640625 1.03515625 C-12.51421113 -0.19834927 -15.33602189 -0.45192006 -18.75 -0.6875 C-19.89984375 -0.77386719 -21.0496875 -0.86023438 -22.234375 -0.94921875 C-23.14703125 -0.96597656 -24.0596875 -0.98273437 -25 -1 C-25.33 -0.67 -25.66 -0.34 -26 0 C-28.85877909 0.23701239 -31.69883297 0.42219182 -34.5625 0.5625 C-35.36880859 0.60568359 -36.17511719 0.64886719 -37.00585938 0.69335938 C-39.00368805 0.79975262 -41.0018207 0.90040888 -43 1 C-43.33 0.34 -43.66 -0.32 -44 -1 C-30.19199633 -6.17800138 -13.6796626 -5.17608855 0 0 Z " fill="#6BB8E5" transform="translate(257,8)"/>
<path d="M0 0 C1.65 0 3.3 0 5 0 C3.13299669 3.73400663 -1.65428178 4.44150929 -5.39453125 5.82421875 C-17.99197029 9.93237601 -32.17658026 10.61915331 -45 7 C-45.99 6.34 -46.98 5.68 -48 5 C-44.52176885 3.84058962 -42.54104422 4.29179116 -39 5 C-39 5.66 -39 6.32 -39 7 C-30.75 7 -22.5 7 -14 7 C-14 6.01 -14 5.02 -14 4 C-4.58997722 1.70387244 -4.58997722 1.70387244 0 2 C0 1.34 0 0.68 0 0 Z " fill="#61B5E3" transform="translate(261,289)"/>
<path d="M0 0 C1.89453125 0.34375 1.89453125 0.34375 4 1 C5.6875 3.5 5.6875 3.5 7 6 C7.33 6.33 7.66 6.66 8 7 C8.08651611 8.41570123 8.10704904 9.835595 8.09765625 11.25390625 C8.09443359 12.10791016 8.09121094 12.96191406 8.08789062 13.84179688 C8.07951172 14.73962891 8.07113281 15.63746094 8.0625 16.5625 C8.05798828 17.46419922 8.05347656 18.36589844 8.04882812 19.29492188 C8.03700225 21.53001314 8.0205222 23.76497437 8 26 C7.34 26 6.68 26 6 26 C5.7834375 26.8971875 5.7834375 26.8971875 5.5625 27.8125 C4.35753751 32.49846525 2.93486171 34.19943907 -0.8125 37.25 C-1.68519531 37.97703125 -2.55789062 38.7040625 -3.45703125 39.453125 C-6 41 -6 41 -8.32421875 40.734375 C-8.87722656 40.49203125 -9.43023437 40.2496875 -10 40 C-8.948125 39.46375 -7.89625 38.9275 -6.8125 38.375 C-1.51215009 35.32328338 2.29242218 30.86410597 4.48828125 25.1015625 C6.77126838 15.7256306 4.54682074 8.24923192 0 0 Z " fill="#4AABD9" transform="translate(253,50)"/>
<path d="M0 0 C4 0 4 0 5.625 1.1875 C7.24629762 3.32466505 8.01906007 5.51495217 9 8 C9.66 8.33 10.32 8.66 11 9 C11 9.66 11 10.32 11 11 C13.31 11.33 15.62 11.66 18 12 C18 12.66 18 13.32 18 14 C18.9075 14.2475 19.815 14.495 20.75 14.75 C24.12496123 16.04806201 25.74102121 17.21971841 28 20 C28 20.66 28 21.32 28 22 C20.23430806 20.30125489 14.39254937 15.74657547 8.625 10.5 C8.11324219 10.0373877 7.60148437 9.57477539 7.07421875 9.09814453 C4.107567 6.31936761 1.91019008 3.58647933 0 0 Z " fill="#3EA5D8" transform="translate(14,271)"/>
<path d="M0 0 C5.04120936 1.26030234 6.93780125 2.88187064 10 7 C10.99 7.33 11.98 7.66 13 8 C15.53329316 12.31700204 15.175345 16.74450328 14.9765625 21.58203125 C14.95153656 22.39621017 14.92651062 23.2103891 14.90072632 24.04924011 C14.81886898 26.63743873 14.72214866 29.22483471 14.625 31.8125 C14.56672532 33.57223335 14.50942282 35.33199917 14.453125 37.09179688 C14.31334158 41.39498889 14.16023062 45.69752279 14 50 C13.34 49.67 12.68 49.34 12 49 C12.02094727 48.10804932 12.04189453 47.21609863 12.06347656 46.29711914 C12.13216086 42.94789032 12.18204327 39.59942332 12.21972656 36.24975586 C12.23968751 34.80757748 12.26686663 33.3654784 12.30175781 31.92358398 C12.56023368 20.95736511 11.71582313 12.43918155 4 4 C2.68505488 2.64852862 1.35735142 1.30887458 0 0 Z " fill="#5BB4D9" transform="translate(78,44)"/>
<path d="M0 0 C0.66 0.33 1.32 0.66 2 1 C2 1.99 2 2.98 2 4 C-0.88834003 6.10770759 -2.38462395 7 -6 7 C-6.33 8.65 -6.66 10.3 -7 12 C-8.32 12.33 -9.64 12.66 -11 13 C-10.8453125 14.0828125 -10.8453125 14.0828125 -10.6875 15.1875 C-11.12659588 19.13936288 -13.11630109 20.39093908 -16 23 C-16.66 23.99 -17.32 24.98 -18 26 C-18.66 26 -19.32 26 -20 26 C-18.5476835 19.86799698 -15.00613024 14.78090071 -11 10 C-10.34 10 -9.68 10 -9 10 C-8.74476563 9.40703125 -8.48953125 8.8140625 -8.2265625 8.203125 C-6.88183502 5.78775462 -5.50785633 4.48788294 -3.375 2.75 C-2.74335938 2.22921875 -2.11171875 1.7084375 -1.4609375 1.171875 C-0.73777344 0.59179688 -0.73777344 0.59179688 0 0 Z " fill="#5AB4DD" transform="translate(197,15)"/>
<path d="M0 0 C-0.33 0.99 -0.66 1.98 -1 3 C-1.66 3 -2.32 3 -3 3 C-3 3.66 -3 4.32 -3 5 C-12.12054835 13.13338312 -25.63186833 20.2037104 -38 20 C-37.505 18.515 -37.505 18.515 -37 17 C-36.32453125 16.96261719 -35.6490625 16.92523438 -34.953125 16.88671875 C-34.06109375 16.82097656 -33.1690625 16.75523438 -32.25 16.6875 C-31.36828125 16.62949219 -30.4865625 16.57148437 -29.578125 16.51171875 C-26.64963601 15.93045806 -25.34445592 14.77740256 -23 13 C-21.68 13 -20.36 13 -19 13 C-19 12.34 -19 11.68 -19 11 C-17.35 11 -15.7 11 -14 11 C-14 10.34 -14 9.68 -14 9 C-13.01 9 -12.02 9 -11 9 C-11 8.34 -11 7.68 -11 7 C-10.01 7 -9.02 7 -8 7 C-7.34 5.68 -6.68 4.36 -6 3 C-5.34 3 -4.68 3 -4 3 C-4 2.34 -4 1.68 -4 1 C-2 0 -2 0 0 0 Z " fill="#6BBEE1" transform="translate(279,110)"/>
<path d="M0 0 C0.99 0 1.98 0 3 0 C2.731875 0.515625 2.46375 1.03125 2.1875 1.5625 C1.795625 2.366875 1.40375 3.17125 1 4 C0.46375 4.969375 -0.0725 5.93875 -0.625 6.9375 C-3.24880842 13.24005013 -3.20957859 20.7072583 -0.875 27.0625 C0.32053998 29.45357996 1.57225401 31.74110189 3 34 C2.01 34 1.02 34 0 34 C0 33.01 0 32.02 0 31 C-0.99 31 -1.98 31 -3 31 C-3 29.68 -3 28.36 -3 27 C-3.66 27 -4.32 27 -5 27 C-5.05429278 24.29139335 -5.09381211 21.58389099 -5.125 18.875 C-5.14175781 18.11445313 -5.15851562 17.35390625 -5.17578125 16.5703125 C-5.21500858 12.01994271 -4.97721316 8.20321474 -3 4 C-2.01 3.67 -1.02 3.34 0 3 C0 2.01 0 1.02 0 0 Z " fill="#54B0DF" transform="translate(44,218)"/>
<path d="M0 0 C1.31896465 0.92838287 2.62998689 1.86805732 3.9375 2.8125 C4.66839844 3.33457031 5.39929688 3.85664063 6.15234375 4.39453125 C8 6 8 6 9 9 C9.99 9.33 10.98 9.66 12 10 C13.60546875 12.06640625 13.60546875 12.06640625 15.1875 14.5625 C15.71730469 15.38878906 16.24710938 16.21507813 16.79296875 17.06640625 C17.19128906 17.70449219 17.58960937 18.34257813 18 19 C17.67 19.66 17.34 20.32 17 21 C15.72689688 20.06558465 14.456612 19.12732889 13.1875 18.1875 C12.47980469 17.66542969 11.77210937 17.14335938 11.04296875 16.60546875 C7.56192219 13.86988532 6.00555968 12.3095415 5 8 C4.34 7.67 3.68 7.34 3 7 C2.67 6.01 2.34 5.02 2 4 C1.34 3.67 0.68 3.34 0 3 C0 2.01 0 1.02 0 0 Z " fill="#68B9DF" transform="translate(103,16)"/>
<path d="M0 0 C0.66 0.33 1.32 0.66 2 1 C0.625 3.5 0.625 3.5 -1 6 C-1.66 6 -2.32 6 -3 6 C-3.0825 6.556875 -3.165 7.11375 -3.25 7.6875 C-4 10 -4 10 -5.9375 12.375 C-8.14593567 15.18573631 -9.04603583 17.58162838 -10 21 C-10.66 21 -11.32 21 -12 21 C-12 23.31 -12 25.62 -12 28 C-13.98 28.99 -13.98 28.99 -16 30 C-15.02165101 20.46109734 -9.76466167 11.49004765 -4 4 C-3.01 3.67 -2.02 3.34 -1 3 C-0.67 2.01 -0.34 1.02 0 0 Z " fill="#56AAD8" transform="translate(21,22)"/>
<path d="M0 0 C1.35351562 -0.04350586 1.35351562 -0.04350586 2.734375 -0.08789062 C9.39630786 -0.15194767 9.39630786 -0.15194767 12.625 2.33203125 C13.305625 3.31236328 13.305625 3.31236328 14 4.3125 C11 4.3125 11 4.3125 8.6796875 3.33203125 C3.05254328 1.19109154 -4.24224116 1.28713046 -9.875 3.5 C-14.49006897 6.17674001 -18.32404217 9.43232229 -22 13.3125 C-20.77758789 7.60791013 -18.8755429 4.67894629 -14 1.3125 C-9.43128141 -0.14556371 -4.75057295 0.050899 0 0 Z " fill="#6BBADF" transform="translate(234,40.6875)"/>
<path d="M0 0 C0.66 0.33 1.32 0.66 2 1 C2.33 8.92 2.66 16.84 3 25 C2.34 25 1.68 25 1 25 C-1.89131373 17.41030145 -2.41901021 7.79888891 0 0 Z " fill="#4AACE0" transform="translate(4,56)"/>
<path d="M0 0 C5.57825407 -0.21050015 10.50239844 0.40575938 15.96875 1.48828125 C21.27522703 2.38409116 26.63283302 2.67575144 32 3 C31.67 3.66 31.34 4.32 31 5 C20.21009506 5.28353035 10.18608426 4.85419404 0 1 C0 0.67 0 0.34 0 0 Z " fill="#5DB5E2" transform="translate(42,293)"/>
<path d="M0 0 C0.66 0 1.32 0 2 0 C2.62359037 8.41846996 0.02331165 16.15002956 -5 23 C-5.66 23 -6.32 23 -7 23 C-5.85521142 17.08525899 -4.26707085 11.80321132 -1.90234375 6.26171875 C-1.07325462 4.18361223 -0.48408617 2.18088306 0 0 Z " fill="#55AEDC" transform="translate(293,245)"/>
<path d="M0 0 C0.99 0.33 1.98 0.66 3 1 C3 1.66 3 2.32 3 3 C3.99 3.33 4.98 3.66 6 4 C6 4.66 6 5.32 6 6 C6.66 6 7.32 6 8 6 C10.76050155 9.1166953 12.9390311 12.39330443 15 16 C15.35449219 16.59425781 15.70898438 17.18851563 16.07421875 17.80078125 C19 22.75921053 19 22.75921053 19 25 C18.01 25.33 17.02 25.66 16 26 C15.85304688 25.443125 15.70609375 24.88625 15.5546875 24.3125 C13.78860048 18.30374418 11.2450639 13.63527868 7 9 C6.34 8.67 5.68 8.34 5 8 C5 7.34 5 6.68 5 6 C4.01 5.67 3.02 5.34 2 5 C0.8125 2.4375 0.8125 2.4375 0 0 Z " fill="#7AC0E1" transform="translate(273,186)"/>
<path d="M0 0 C0.66 0 1.32 0 2 0 C2.6875 1.75 2.6875 1.75 3 4 C2.01439389 5.34400833 1.01241685 6.67607028 0 8 C-0.72045367 11.15118325 -0.72045367 11.15118325 -1 14 C-1.721875 14.103125 -2.44375 14.20625 -3.1875 14.3125 C-6.24491993 15.05986932 -8.38329635 16.28045189 -11 18 C-11.66 17.34 -12.32 16.68 -13 16 C-11.948125 15.34 -10.89625 14.68 -9.8125 14 C-4.83209976 10.4642189 -1.91583925 5.74751776 0 0 Z " fill="#5DB2E0" transform="translate(90,241)"/>
<path d="M0 0 C0.33 0.66 0.66 1.32 1 2 C0.360625 3.11375 -0.27875 4.2275 -0.9375 5.375 C-4.32947713 11.81858285 -3.9319143 19.34830617 -2 26.25 C-1.67 27.1575 -1.34 28.065 -1 29 C-2.32 28.67 -3.64 28.34 -5 28 C-6.95533242 19.20100411 -7.04220936 10.80898591 -3.0703125 2.64453125 C-2 1 -2 1 0 0 Z " fill="#58B2DC" transform="translate(45,51)"/>
<path d="M0 0 C0.66 0.33 1.32 0.66 2 1 C-0.21817459 5.5595811 -2.45405314 6.92467643 -7 9 C-7.33 9.66 -7.66 10.32 -8 11 C-9.32 11 -10.64 11 -12 11 C-12.33 12.32 -12.66 13.64 -13 15 C-14.32 14.67 -15.64 14.34 -17 14 C-15.37660195 12.29115995 -13.70680947 10.62553283 -12 9 C-11.34 9 -10.68 9 -10 9 C-10 8.34 -10 7.68 -10 7 C-7.8125 5.2734375 -7.8125 5.2734375 -5 3.375 C-4.071875 2.74335938 -3.14375 2.11171875 -2.1875 1.4609375 C-1.465625 0.97882813 -0.74375 0.49671875 0 0 Z " fill="#5DB6DF" transform="translate(34,180)"/>
<path d="M0 0 C5.04017947 7.56026921 4.28008617 18.22396675 4 27 C3.34 27 2.68 27 2 27 C0.6216461 22.02212778 0.33908035 16.94026101 -0.125 11.8125 C-0.27388672 10.27819336 -0.27388672 10.27819336 -0.42578125 8.71289062 C-0.51472656 7.74158203 -0.60367187 6.77027344 -0.6953125 5.76953125 C-0.77797363 4.87854736 -0.86063477 3.98756348 -0.94580078 3.06958008 C-0.96368652 2.38661865 -0.98157227 1.70365723 -1 1 C-0.67 0.67 -0.34 0.34 0 0 Z " fill="#62B6E2" transform="translate(293,214)"/>
<path d="M0 0 C0.66 0 1.32 0 2 0 C4.44313537 9.8675676 4.23035146 19.6045697 4.125 29.6875 C4.11494678 31.37173945 4.10582508 33.05598473 4.09765625 34.74023438 C4.07583596 38.82696937 4.04143636 42.91341875 4 47 C3.67 47 3.34 47 3 47 C2.97494385 46.18958252 2.9498877 45.37916504 2.92407227 44.54418945 C2.82762262 41.47070446 2.72849396 38.39731949 2.62768555 35.32397461 C2.56424794 33.36643735 2.50376182 31.40880514 2.44335938 29.45117188 C2.1121743 14.63161397 2.1121743 14.63161397 0 0 Z " fill="#4BAAD9" transform="translate(124,46)"/>
<path d="M0 0 C2.6875 -0.3125 2.6875 -0.3125 6 0 C8.4375 2.1875 8.4375 2.1875 11 5 C12.25199819 5.92197356 13.52359098 6.81787464 14.8125 7.6875 C15.864375 8.450625 16.91625 9.21375 18 10 C18 10.66 18 11.32 18 12 C13.77296518 11.44401164 11.14315441 10.02497374 7.6875 7.5625 C6.80449219 6.94503906 5.92148438 6.32757813 5.01171875 5.69140625 C4.01591797 4.85416016 4.01591797 4.85416016 3 4 C3 3.34 3 2.68 3 2 C2.01 1.67 1.02 1.34 0 1 C0 0.67 0 0.34 0 0 Z " fill="#61B5DB" transform="translate(188,279)"/>
<path d="M0 0 C3 0 3 0 5.16015625 1.83984375 C7.81552207 6.40075872 7.54744704 10.38080222 7.4375 15.5625 C7.44458984 16.50802734 7.45167969 17.45355469 7.45898438 18.42773438 C7.41321822 23.40920412 7.36576049 26.11651603 4 30 C3.34 29.67 2.68 29.34 2 29 C2.495 28.0925 2.99 27.185 3.5 26.25 C5.97500995 20.41181864 6.22713013 13.51003437 4.1328125 7.51953125 C3.18809185 5.62664206 2.10315046 3.8051553 1 2 C0.67 1.34 0.34 0.68 0 0 Z " fill="#6BB8DF" transform="translate(253,219)"/>
<path d="M0 0 C0.33 0.66 0.66 1.32 1 2 C1.66 2 2.32 2 3 2 C2.2861382 8.96015253 -0.89159024 14.8389367 -4 21 C-4.66 21 -5.32 21 -6 21 C-5.79503906 20.25234375 -5.59007812 19.5046875 -5.37890625 18.734375 C-5.10949219 17.74953125 -4.84007812 16.7646875 -4.5625 15.75 C-4.29566406 14.77546875 -4.02882813 13.8009375 -3.75390625 12.796875 C-3.14455416 10.53627347 -2.55761745 8.27377991 -2 6 C-1.34 6 -0.68 6 0 6 C0 4.02 0 2.04 0 0 Z " fill="#60B5E3" transform="translate(292,80)"/>
<path d="M0 0 C0.66 0 1.32 0 2 0 C3.41164959 2.82329919 3.13206965 5.2290079 3.125 8.375 C3.12757813 9.51710938 3.13015625 10.65921875 3.1328125 11.8359375 C3.0238268 14.43236152 2.76461243 16.53624883 2 19 C1.34 19 0.68 19 0 19 C0 12.73 0 6.46 0 0 Z " fill="#5FB6E2" transform="translate(294,59)"/>
<path d="M0 0 C-2.95640382 6.98786357 -7.45396249 10.66280441 -14 14 C-13.875 12.125 -13.875 12.125 -13 10 C-9.9375 8.75 -9.9375 8.75 -7 8 C-6.67 5.69 -6.34 3.38 -6 1 C-3 0 -3 0 0 0 Z " fill="#5AB5E4" transform="translate(282,274)"/>
<path d="M0 0 C0.99 0.33 1.98 0.66 3 1 C2.67 1.99 2.34 2.98 2 4 C1.88764839 5.33451263 1.82424351 6.67354389 1.79467773 8.01245117 C1.77473251 8.81305466 1.75478729 9.61365814 1.73423767 10.43852234 C1.71752518 11.29798965 1.70081268 12.15745697 1.68359375 13.04296875 C1.66281265 13.9265657 1.64203156 14.81016266 1.62062073 15.72053528 C1.55524246 18.54277785 1.49629472 21.36511335 1.4375 24.1875 C1.39430363 26.10092106 1.35068898 28.01433273 1.30664062 29.92773438 C1.19957305 34.61839437 1.09827248 39.30914783 1 44 C0.67 44 0.34 44 0 44 C0 29.48 0 14.96 0 0 Z " fill="#3BAAE2" transform="translate(92,129)"/>
<path d="M0 0 C1.125 3.75 1.125 3.75 0 6 C-0.27695822 9.01576733 -0.44652938 12.03138112 -0.62109375 15.0546875 C-0.98096029 17.85200059 -1.56918885 19.60179832 -3 22 C-3.66 22 -4.32 22 -5 22 C-4.74809356 13.85082664 -3.99450062 7.19010111 0 0 Z " fill="#65B8DF" transform="translate(176,41)"/>
<path d="M0 0 C0.66 0 1.32 0 2 0 C2 0.66 2 1.32 2 2 C2.66 2 3.32 2 4 2 C4.99 6.29 5.98 10.58 7 15 C7.66 15 8.32 15 9 15 C9 15.99 9 16.98 9 18 C6 17 6 17 4.5 15 C2.13513711 10.27027422 0 5.33601471 0 0 Z " fill="#5CB4E3" transform="translate(5,250)"/>
<path d="M0 0 C5.80342274 1.48805711 10.17590879 4.59097555 15 8 C14.01 9.485 14.01 9.485 13 11 C11 9.625 11 9.625 9 8 C9 7.34 9 6.68 9 6 C6.69 5.67 4.38 5.34 2 5 C1.34 3.35 0.68 1.7 0 0 Z " fill="#67B9E0" transform="translate(258,177)"/>
<path d="M0 0 C-3.4066466 3.13043202 -6.00878902 3.42813877 -10.5625 3.625 C-15.36526385 3.84848538 -15.36526385 3.84848538 -20 5 C-22.72331488 5.23188622 -25.25039269 5.13093368 -28 5 C-28.66 4.34 -29.32 3.68 -30 3 C-29.34926514 2.94465088 -28.69853027 2.88930176 -28.02807617 2.83227539 C-25.08087901 2.57946307 -22.1341994 2.32104674 -19.1875 2.0625 C-18.16333984 1.97548828 -17.13917969 1.88847656 -16.08398438 1.79882812 C-14.60961914 1.66831055 -14.60961914 1.66831055 -13.10546875 1.53515625 C-11.74651489 1.41732788 -11.74651489 1.41732788 -10.36010742 1.29711914 C-0.04667617 -0.00126152 -0.04667617 -0.00126152 0 0 Z " fill="#4BA9D9" transform="translate(247,91)"/>
<path d="M0 0 C2.375 0.1875 2.375 0.1875 5 1 C6.3125 3.5625 6.3125 3.5625 7 6 C6.01 6.33 5.02 6.66 4 7 C3.67 6.34 3.34 5.68 3 5 C2.34 6.32 1.68 7.64 1 9 C0.01 8.67 -0.98 8.34 -2 8 C-2 7.01 -2 6.02 -2 5 C-1.34 5 -0.68 5 0 5 C0 3.35 0 1.7 0 0 Z " fill="#46B0E4" transform="translate(283,33)"/>
<path d="M0 0 C0.99 0.66 1.98 1.32 3 2 C0.88074396 4.11925604 -3.6196093 3.41831017 -6.5625 3.5625 C-7.36880859 3.60568359 -8.17511719 3.64886719 -9.00585938 3.69335938 C-11.00368805 3.79975262 -13.0018207 3.90040888 -15 4 C-15.33 3.34 -15.66 2.68 -16 2 C-10.76454631 -0.20440155 -5.61215735 -0.65684458 0 0 Z " fill="#54AFDE" transform="translate(229,5)"/>
<path d="M0 0 C4 0 4 0 5.625 1.1875 C7.24629762 3.32466505 8.01906007 5.51495217 9 8 C9.66 8.33 10.32 8.66 11 9 C11 9.66 11 10.32 11 11 C11.99 11 12.98 11 14 11 C14 11.66 14 12.32 14 13 C14.66 13 15.32 13 16 13 C15.67 13.99 15.34 14.98 15 16 C13.05529254 14.27840626 11.11942691 12.54833744 9.1875 10.8125 C8.64029297 10.32974609 8.09308594 9.84699219 7.52929688 9.34960938 C4.35712035 6.48503784 2.00250792 3.84340994 0 0 Z " fill="#7AC0E6" transform="translate(14,271)"/>
<path d="M0 0 C2 3 2 3 1.3125 6.5 C-0.48322148 11.2885906 -0.48322148 11.2885906 -3 13 C-3.99 13 -4.98 13 -6 13 C-5.51675181 7.84535266 -2.81389239 4.18449681 0 0 Z " fill="#39A8DA" transform="translate(16,195)"/>
<path d="M0 0 C3 1 3 1 4.09765625 3.109375 C4.41605469 3.98078125 4.73445312 4.8521875 5.0625 5.75 C5.38347656 6.61109375 5.70445313 7.4721875 6.03515625 8.359375 C6.69304534 10.15991357 7.34650956 11.96207361 7.99609375 13.765625 C8.78757991 16.15736385 8.78757991 16.15736385 11 17 C10.34 17.66 9.68 18.32 9 19 C-0 6.15533981 -0 6.15533981 0 0 Z " fill="#7ABEE3" transform="translate(7,88)"/>
<path d="M0 0 C0.66 0 1.32 0 2 0 C2.556875 0.7425 3.11375 1.485 3.6875 2.25 C6.53625509 5.63770875 9.09656432 6.94182482 13 9 C13.99 9.66 14.98 10.32 16 11 C14.54119891 10.85892253 13.08296449 10.71197585 11.625 10.5625 C10.40683594 10.44068359 10.40683594 10.44068359 9.1640625 10.31640625 C7 10 7 10 5 9 C5 8.34 5 7.68 5 7 C4.360625 6.773125 3.72125 6.54625 3.0625 6.3125 C1 5 1 5 0.25 2.375 C0.1675 1.59125 0.085 0.8075 0 0 Z " fill="#67B9E0" transform="translate(212,249)"/>
<path d="M0 0 C0.33 0.66 0.66 1.32 1 2 C1.66 2.33 2.32 2.66 3 3 C1.71937515 4.7074998 0.38232443 6.37373596 -1 8 C-1.66 8 -2.32 8 -3 8 C-3.061875 8.598125 -3.12375 9.19625 -3.1875 9.8125 C-4.3236757 12.87143458 -6.17330142 13.55041099 -9 15 C-8.40312566 11.65750371 -7.26396123 9.53563658 -5 7 C-4.34 7 -3.68 7 -3 7 C-3 6.01 -3 5.02 -3 4 C-2.34 3.67 -1.68 3.34 -1 3 C-0.67 2.01 -0.34 1.02 0 0 Z " fill="#73BDE3" transform="translate(115,269)"/>
<path d="M0 0 C0.66 0.33 1.32 0.66 2 1 C2 1.99 2 2.98 2 4 C-0.88834003 6.10770759 -2.38462395 7 -6 7 C-6.2475 7.639375 -6.495 8.27875 -6.75 8.9375 C-8 11 -8 11 -10.125 11.75 C-11.053125 11.87375 -11.053125 11.87375 -12 12 C-11.67 11.34 -11.34 10.68 -11 10 C-10.34 10 -9.68 10 -9 10 C-8.74476563 9.40703125 -8.48953125 8.8140625 -8.2265625 8.203125 C-6.88183502 5.78775462 -5.50785633 4.48788294 -3.375 2.75 C-2.74335938 2.22921875 -2.11171875 1.7084375 -1.4609375 1.171875 C-0.73777344 0.59179688 -0.73777344 0.59179688 0 0 Z " fill="#60B7E3" transform="translate(197,15)"/>
<path d="M0 0 C4.62 0 9.24 0 14 0 C14 0.66 14 1.32 14 2 C10.04 2 6.08 2 2 2 C2 4.64 2 7.28 2 10 C-0.32221873 6.22639456 0 4.98800589 0 0 Z " fill="#84CEE9" transform="translate(206,208)"/>
<path d="M0 0 C0.33 0 0.66 0 1 0 C1.18218209 4.00800589 1.14137698 6.58798668 -1 10 C-3.2421875 12.17578125 -3.2421875 12.17578125 -5.875 14.3125 C-7.17050781 15.38951172 -7.17050781 15.38951172 -8.4921875 16.48828125 C-11 18 -11 18 -13.3203125 17.73046875 C-13.87460938 17.48941406 -14.42890625 17.24835938 -15 17 C-13.948125 16.46375 -12.89625 15.9275 -11.8125 15.375 C-5.50725071 11.74470496 -2.50938032 6.60363242 0 0 Z " fill="#89C3E3" transform="translate(258,73)"/>
<path d="M0 0 C0 0.66 0 1.32 0 2 C-2.90600261 3.25664978 -4.79604584 4 -8 4 C-8 4.66 -8 5.32 -8 6 C-15.42857143 8.14285714 -15.42857143 8.14285714 -19 9 C-19 8.34 -19 7.68 -19 7 C-5.72413793 0 -5.72413793 0 0 0 Z " fill="#7AC0E6" transform="translate(53,5)"/>
<path d="M0 0 C2.04224637 0.11514149 4.08380159 0.24257326 6.125 0.375 C7.26195313 0.44460937 8.39890625 0.51421875 9.5703125 0.5859375 C12.95393616 0.99443876 15.81612441 1.80967569 19 3 C18.67 3.66 18.34 4.32 18 5 C12.06 4.01 6.12 3.02 0 2 C0 1.34 0 0.68 0 0 Z " fill="#71BEE4" transform="translate(68,4)"/>
<path d="M0 0 C0.66 0 1.32 0 2 0 C1.58578031 4.83256305 -0.46413986 6.82679218 -4 10 C-4 9.01 -4 8.02 -4 7 C-5.65 7 -7.3 7 -9 7 C-6.98928293 5.42015087 -5.11803264 4.05733014 -2.8125 2.9375 C-0.82107843 2.13297839 -0.82107843 2.13297839 0 0 Z " fill="#59B3E3" transform="translate(251,252)"/>
<path d="M0 0 C1 3 1 3 -0.43359375 6.35546875 C-1.09148807 7.6380304 -1.75989743 8.91524057 -2.4375 10.1875 C-2.77587891 10.84169922 -3.11425781 11.49589844 -3.46289062 12.16992188 C-4.29969098 13.78459299 -5.14869746 15.39292763 -6 17 C-6.33 17 -6.66 17 -7 17 C-7 15.35 -7 13.7 -7 12 C-6.34 12 -5.68 12 -5 12 C-4.89042969 11.38511719 -4.78085938 10.77023437 -4.66796875 10.13671875 C-4.50941406 9.32847656 -4.35085937 8.52023437 -4.1875 7.6875 C-4.03667969 6.88699219 -3.88585937 6.08648437 -3.73046875 5.26171875 C-2.92427764 2.76554413 -1.97947998 1.67577894 0 0 Z " fill="#68BEE1" transform="translate(125,253)"/>
<path d="M0 0 C4.96191837 2.18324408 9.93103735 4.90855133 12.4375 9.8125 C12.7159375 10.8953125 12.7159375 10.8953125 13 12 C10.96166576 10.7260411 8.96147874 9.38938077 7 8 C7 7.34 7 6.68 7 6 C5.68 5.67 4.36 5.34 3 5 C3 4.34 3 3.68 3 3 C2.34 3 1.68 3 1 3 C0.67 2.01 0.34 1.02 0 0 Z " fill="#80C3E5" transform="translate(17,107)"/>
<path d="M0 0 C-1.95585325 1.00484204 -3.91476237 2.00373805 -5.875 3 C-6.96554688 3.556875 -8.05609375 4.11375 -9.1796875 4.6875 C-12 6 -12 6 -14 6 C-13.5 4.1875 -13.5 4.1875 -12 2 C-7.87630888 -0.25258898 -4.57219641 -1.50697954 0 0 Z " fill="#6ABFE3" transform="translate(102,288)"/>
<path d="M0 0 C4.20626034 1.50223584 5.73900021 4.28550034 8 8 C7.67 8.66 7.34 9.32 7 10 C5.82174642 9.09827532 4.65768423 8.17798498 3.5 7.25 C2.8503125 6.73953125 2.200625 6.2290625 1.53125 5.703125 C0 4 0 4 0 0 Z " fill="#5CB4DB" transform="translate(113,27)"/>
<path d="M0 0 C-0.125 1.875 -0.125 1.875 -1 4 C-4.73397847 5.69726294 -7.92157346 6.23990744 -12 6 C-9.1490916 2.47828963 -4.56486714 0 0 0 Z " fill="#61B9E5" transform="translate(212,8)"/>
<path d="M0 0 C0.33 0.66 0.66 1.32 1 2 C0.0390625 3.8828125 0.0390625 3.8828125 -1.375 6.125 C-3.96455146 10.55090928 -4.72239203 13.91052051 -5 19 C-5.33 19 -5.66 19 -6 19 C-6.43824627 12.09762125 -5.65568775 6.97718289 -2 1 C-1.34 0.67 -0.68 0.34 0 0 Z " fill="#65BAE2" transform="translate(45,51)"/>
<path d="M0 0 C2 1 4 2 6 3 C6.33333333 5 6.66666667 7 7 9 C7.66 9.33 8.32 9.66 9 10 C8.01 10 7.02 10 6 10 C4.39453125 8.3203125 4.39453125 8.3203125 2.8125 6.125 C2.01779297 5.04605469 2.01779297 5.04605469 1.20703125 3.9453125 C0 2 0 2 0 0 Z " fill="#67BCE1" transform="translate(180,267)"/>
<path d="M0 0 C1.22333253 2.44666506 1.04546823 3.79229374 0.8125 6.5 C0.72935547 7.69109375 0.72935547 7.69109375 0.64453125 8.90625 C0 11 0 11 -2.05078125 12.28125 C-2.69402344 12.5184375 -3.33726563 12.755625 -4 13 C-3.40895235 8.15340923 -2.02055843 4.39251833 0 0 Z " fill="#6EBFE5" transform="translate(9,39)"/>
<path d="M0 0 C0.66 0 1.32 0 2 0 C2.33 2.31 2.66 4.62 3 7 C3.66 7 4.32 7 5 7 C5 7.99 5 8.98 5 10 C5.66 10 6.32 10 7 10 C6.34 11.32 5.68 12.64 5 14 C1.87680501 9.59913433 0.96396425 5.20540698 0 0 Z " fill="#75BEE5" transform="translate(174,253)"/>
<path d="M0 0 C0.66 0 1.32 0 2 0 C2 1.32 2 2.64 2 4 C0.68 4 -0.64 4 -2 4 C-2.33 5.32 -2.66 6.64 -3 8 C-4.32 7.67 -5.64 7.34 -7 7 C-5.37660195 5.29115995 -3.70680947 3.62553283 -2 2 C-1.34 2 -0.68 2 0 2 C0 1.34 0 0.68 0 0 Z " fill="#6CBBE0" transform="translate(24,187)"/>
<path d="M0 0 C-3.11910856 1.79275866 -5.67682428 2.34290718 -9.25 2.625 C-10.14203125 2.69976562 -11.0340625 2.77453125 -11.953125 2.8515625 C-12.62859375 2.90054688 -13.3040625 2.94953125 -14 3 C-13.67 2.01 -13.34 1.02 -13 0 C-11.39679026 -0.19551338 -9.79237014 -0.38111983 -8.1875 -0.5625 C-7.29417969 -0.66691406 -6.40085938 -0.77132812 -5.48046875 -0.87890625 C-3 -1 -3 -1 0 0 Z " fill="#7CC5E4" transform="translate(255,127)"/>
<path d="M0 0 C0.66 0.33 1.32 0.66 2 1 C-0.97 4.63 -3.94 8.26 -7 12 C-8 9 -8 9 -6.875 6.5625 C-4.86407973 3.8142423 -2.74089602 2.00011331 0 0 Z " fill="#5DB5DE" transform="translate(220,42)"/>
<path d="M0 0 C1.79206547 0.14084796 3.58364917 0.28783701 5.375 0.4375 C6.87160156 0.55931641 6.87160156 0.55931641 8.3984375 0.68359375 C11 1 11 1 13 2 C13 2.66 13 3.32 13 4 C7.73946963 4.31563182 4.55426184 3.66590937 0 1 C0 0.67 0 0.34 0 0 Z " fill="#54A9DA" transform="translate(244,6)"/>
<path d="M0 0 C1.875 0.25 1.875 0.25 4 1 C6.35535899 4.17973464 6.17494335 7.15124621 6 11 C3.13546142 7.58983503 1.65296434 4.09305456 0 0 Z " fill="#72BAE5" transform="translate(253,50)"/>
<path d="M0 0 C0.66 0 1.32 0 2 0 C2 0.99 2 1.98 2 3 C2.66 3 3.32 3 4 3 C4.33 3.99 4.66 4.98 5 6 C4.01 7.485 4.01 7.485 3 9 C2.34 9 1.68 9 1 9 C0.67 6.03 0.34 3.06 0 0 Z " fill="#55B3E1" transform="translate(3,237)"/>
<path d="M0 0 C4.89157798 1.2228945 7.34618634 2.6477456 10 7 C9.67 7.99 9.34 8.98 9 10 C7.88625 8.63875 7.88625 8.63875 6.75 7.25 C4.62325416 4.6930577 2.39770184 2.30889807 0 0 Z " fill="#6EB7E0" transform="translate(78,44)"/>
<path d="M0 0 C0.66 0 1.32 0 2 0 C3.2062252 3.61867559 3.10816918 6.92506251 3.0625 10.6875 C3.05798828 11.38939453 3.05347656 12.09128906 3.04882812 12.81445312 C3.03706927 14.54300538 3.01913454 16.27151365 3 18 C2.67 18 2.34 18 2 18 C1.93941406 17.11957031 1.87882812 16.23914063 1.81640625 15.33203125 C1.73261719 14.17058594 1.64882812 13.00914063 1.5625 11.8125 C1.48128906 10.66394531 1.40007812 9.51539063 1.31640625 8.33203125 C1.04596188 5.48401829 0.62478253 2.78789518 0 0 Z " fill="#57B3DD" transform="translate(124,46)"/>
<path d="M0 0 C0.33 0.66 0.66 1.32 1 2 C0.67 2.66 0.34 3.32 0 4 C-0.99 4 -1.98 4 -3 4 C-3 4.66 -3 5.32 -3 6 C-3.66 6 -4.32 6 -5 6 C-5 6.66 -5 7.32 -5 8 C-6.32 7.67 -7.64 7.34 -9 7 C-6.03 4.69 -3.06 2.38 0 0 Z " fill="#64BDE2" transform="translate(32,14)"/>
<path d="M0 0 C3.91593446 0.78318689 7.36406635 2.39179858 11 4 C11 4.66 11 5.32 11 6 C6.48986609 5.46939601 3.61621781 3.69113883 0 1 C0 0.67 0 0.34 0 0 Z " fill="#6EBBE0" transform="translate(195,285)"/>
<path d="M0 0 C1.32 0.33 2.64 0.66 4 1 C2.52307692 5.67692308 2.52307692 5.67692308 -0.125 7.3125 C-1.053125 7.6528125 -1.053125 7.6528125 -2 8 C-2.33 7.01 -2.66 6.02 -3 5 C-2.34 4.67 -1.68 4.34 -1 4 C-0.34786708 1.97536745 -0.34786708 1.97536745 0 0 Z " fill="#48B1DF" transform="translate(104,279)"/>
<path d="M0 0 C0.556875 0.226875 1.11375 0.45375 1.6875 0.6875 C0.0478125 1.5846875 0.0478125 1.5846875 -1.625 2.5 C-4.22324129 3.97794697 -6.35599493 5.38572933 -8.3125 7.6875 C-8.9725 7.0275 -9.6325 6.3675 -10.3125 5.6875 C-9.3225 5.6875 -8.3325 5.6875 -7.3125 5.6875 C-7.3125 4.6975 -7.3125 3.7075 -7.3125 2.6875 C-3.28618421 -0.44407895 -3.28618421 -0.44407895 0 0 Z " fill="#73BBE0" transform="translate(55.3125,43.3125)"/>
<path d="M0 0 C2.97 0 5.94 0 9 0 C4.58119757 2.94586829 2.32232661 3.0985616 -3 3 C-2.01 2.67 -1.02 2.34 0 2 C0 1.34 0 0.68 0 0 Z " fill="#74C2EB" transform="translate(78,294)"/>
<path d="M0 0 C0.66 0.33 1.32 0.66 2 1 C-0.64 2.98 -3.28 4.96 -6 7 C-6.33 6.01 -6.66 5.02 -7 4 C-2.25 1.125 -2.25 1.125 0 0 Z " fill="#76C4E6" transform="translate(275,281)"/>
<path d="M0 0 C1.4606285 2.64738916 2 3.89448334 2 7 C0.35 6.67 -1.3 6.34 -3 6 C-2.42655063 3.13275314 -2.1385485 2.1385485 0 0 Z " fill="#32A5E0" transform="translate(294,237)"/>
<path d="M0 0 C0.99 0.33 1.98 0.66 3 1 C2.47731534 3.76276177 1.89130413 6.3260876 1 9 C0.34 9 -0.32 9 -1 9 C-0.67 6.03 -0.34 3.06 0 0 Z " fill="#54B3E4" transform="translate(4,224)"/>
<path d="M0 0 C0.66 0.99 1.32 1.98 2 3 C1.21654285 4.17219543 0.42297164 5.33763668 -0.375 6.5 C-0.81585937 7.1496875 -1.25671875 7.799375 -1.7109375 8.46875 C-2.13632813 8.9740625 -2.56171875 9.479375 -3 10 C-3.66 10 -4.32 10 -5 10 C-3.66511872 6.40608886 -2.03977277 3.24509304 0 0 Z " fill="#5DBDE1" transform="translate(16,195)"/>
<path d="M0 0 C0.66 0 1.32 0 2 0 C1.29445932 3.66881155 -0.27735506 6.70450534 -2 10 C-2.66 10 -3.32 10 -4 10 C-2.99806563 6.20696275 -2.18975773 3.28463659 0 0 Z " fill="#83CDEB" transform="translate(290,91)"/>
<path d="M0 0 C0.66 0.33 1.32 0.66 2 1 C0.08864614 4.53600465 -1.62642766 6.78972846 -5 9 C-5.66 8.67 -6.32 8.34 -7 8 C-5.71937515 6.2925002 -4.38232443 4.62626404 -3 3 C-2.34 3 -1.68 3 -1 3 C-0.67 2.01 -0.34 1.02 0 0 Z " fill="#7AC0E7" transform="translate(21,22)"/>
<path d="M0 0 C0.66 0 1.32 0 2 0 C2.66 1.98 3.32 3.96 4 6 C4.66 6 5.32 6 6 6 C6 6.99 6 7.98 6 9 C3 8 3 8 1.3125 5.625 C0 3 0 3 0 0 Z " fill="#6DB7E1" transform="translate(8,259)"/>
<path d="M0 0 C0.99 0.33 1.98 0.66 3 1 C3 5.29 3 9.58 3 14 C2.67 14 2.34 14 2 14 C1.34 9.38 0.68 4.76 0 0 Z " fill="#43A5D9" transform="translate(290,211)"/>
<path d="M0 0 C2.64 0.33 5.28 0.66 8 1 C4.96474514 3.02350324 3.80573798 3.32124018 0.3125 3.625 C-0.49574219 3.69976562 -1.30398437 3.77453125 -2.13671875 3.8515625 C-2.75160156 3.90054687 -3.36648437 3.94953125 -4 4 C-2.68 3.67 -1.36 3.34 0 3 C0 2.01 0 1.02 0 0 Z " fill="#73C1E7" transform="translate(247,293)"/>
<path d="M0 0 C0.99 0 1.98 0 3 0 C2.731875 0.515625 2.46375 1.03125 2.1875 1.5625 C0.67650593 4.66401415 -0.65572726 7.82262806 -2 11 C-2.33 11 -2.66 11 -3 11 C-3 9.35 -3 7.7 -3 6 C-2.34 6 -1.68 6 -1 6 C-0.67 4.02 -0.34 2.04 0 0 Z " fill="#81C6E6" transform="translate(44,218)"/>
<path d="M0 0 C1.2065625 0.0309375 1.2065625 0.0309375 2.4375 0.0625 C3.0975 1.3825 3.7575 2.7025 4.4375 4.0625 C1.06287285 3.51526317 -0.64485 3.0076 -3.5625 1.0625 C-2.5625 0.0625 -2.5625 0.0625 0 0 Z " fill="#59B2E3" transform="translate(242.5625,208.9375)"/>
<path d="M0 0 C0.99 0.33 1.98 0.66 3 1 C3 1.66 3 2.32 3 3 C3.99 3.33 4.98 3.66 6 4 C6.6875 6.0625 6.6875 6.0625 7 8 C6.34 8 5.68 8 5 8 C5 7.34 5 6.68 5 6 C4.01 5.67 3.02 5.34 2 5 C0.8125 2.4375 0.8125 2.4375 0 0 Z " fill="#65B3D7" transform="translate(273,186)"/>
<path d="M0 0 C-1.29299694 2.88437779 -2.65941363 4.87219421 -5 7 C-5 5.02 -5 3.04 -5 1 C-3 0 -3 0 0 0 Z " fill="#6DBEE4" transform="translate(285,103)"/>
<path d="M0 0 C0.66 0.33 1.32 0.66 2 1 C2.125 6.75 2.125 6.75 1 9 C0.34 9 -0.32 9 -1 9 C-0.67 6.03 -0.34 3.06 0 0 Z " fill="#64B4E5" transform="translate(4,56)"/>
<path d="M0 0 C0 0.33 0 0.66 0 1 C-1.98 1 -3.96 1 -6 1 C-6 1.66 -6 2.32 -6 3 C-7.65 3 -9.3 3 -11 3 C-7.46647659 -0.87004945 -5.02196482 -1.22155901 0 0 Z " fill="#39A5DD" transform="translate(64,40)"/>
<path d="M0 0 C0.66 0 1.32 0 2 0 C1.35494404 3.48330216 0.01782732 6.09432866 -2 9 C-2.66 9 -3.32 9 -4 9 C-3.67 7.68 -3.34 6.36 -3 5 C-2.34 5 -1.68 5 -1 5 C-0.67 3.35 -0.34 1.7 0 0 Z " fill="#81C3E2" transform="translate(290,259)"/>
<path d="M0 0 C0.66 0.66 1.32 1.32 2 2 C1.625 5.625 1.625 5.625 1 9 C0.34 9 -0.32 9 -1 9 C-0.67 6.03 -0.34 3.06 0 0 Z " fill="#5CAFE2" transform="translate(6,214)"/>
<path d="M0 0 C-0.33 0.99 -0.66 1.98 -1 3 C-1.66 3 -2.32 3 -3 3 C-3 3.66 -3 4.32 -3 5 C-4.65 5.33 -6.3 5.66 -8 6 C-7.34 5.01 -6.68 4.02 -6 3 C-5.34 3 -4.68 3 -4 3 C-4 2.34 -4 1.68 -4 1 C-2 0 -2 0 0 0 Z " fill="#5FB3DB" transform="translate(279,110)"/>
<path d="M0 0 C0.33 0 0.66 0 1 0 C1.17942163 3.94727588 1.09350689 6.5980513 -1 10 C-1.66 10 -2.32 10 -3 10 C-2.49287967 6.28111761 -1.88391785 3.26545761 0 0 Z " fill="#73BEE1" transform="translate(258,73)"/>
<path d="M0 0 C0.66 0 1.32 0 2 0 C2.6875 1.75 2.6875 1.75 3 4 C1.6875 6.25 1.6875 6.25 0 8 C-0.66 8 -1.32 8 -2 8 C-1.34 5.36 -0.68 2.72 0 0 Z " fill="#36A4DB" transform="translate(177,41)"/>
<path d="M0 0 C5.75 3.625 5.75 3.625 8 7 C4.84859577 6.65930765 3.39218439 6.41923159 1.1875 4.0625 C0 2 0 2 0 0 Z " fill="#62B4DB" transform="translate(271,17)"/>
<path d="M0 0 C0.33 0 0.66 0 1 0 C1 3.3 1 6.6 1 10 C0.67 9.01 0.34 8.02 0 7 C-0.66 7 -1.32 7 -2 7 C-2 5.68 -2 4.36 -2 3 C-1.34 3 -0.68 3 0 3 C0 2.01 0 1.02 0 0 Z " fill="#3DA2D9" transform="translate(5,230)"/>
<path d="M0 0 C2.31 0.33 4.62 0.66 7 1 C7.33 1.99 7.66 2.98 8 4 C5.07120629 3.37240135 2.63904371 2.41377341 0 1 C0 0.67 0 0.34 0 0 Z " fill="#6BBBE3" transform="translate(34,289)"/>
<path d="M0 0 C0.66 0 1.32 0 2 0 C2.625 1.875 2.625 1.875 3 4 C2.34 4.66 1.68 5.32 1 6 C0.01 6 -0.98 6 -2 6 C-1.34 4.02 -0.68 2.04 0 0 Z " fill="#6BB9E2" transform="translate(90,241)"/>
<path d="M0 0 C0 3 0 3 -2.5 5.6875 C-3.325 6.450625 -4.15 7.21375 -5 8 C-5.66 7.67 -6.32 7.34 -7 7 C-6.01 6.67 -5.02 6.34 -4 6 C-2.90833725 4.06669397 -2.90833725 4.06669397 -2 2 C-1.34 1.34 -0.68 0.68 0 0 Z " fill="#8DCAE6" transform="translate(192,19)"/>
<path d="M0 0 C6.875 3.75 6.875 3.75 8 6 C5.03 5.505 5.03 5.505 2 5 C2 4.01 2 3.02 2 2 C1.34 2 0.68 2 0 2 C0 1.34 0 0.68 0 0 Z " fill="#68CDE6" transform="translate(263,11)"/>
</svg>
