<?xml version="1.0" encoding="UTF-8"?>
<svg version="1.1" xmlns="http://www.w3.org/2000/svg" width="552" height="492">
<path d="M0 0 C182.16 0 364.32 0 552 0 C552 162.36 552 324.72 552 492 C369.84 492 187.68 492 0 492 C0 329.64 0 167.28 0 0 Z " fill="#FEFEFE" transform="translate(0,0)"/>
<path d="M0 0 C1.33998047 0.13535156 1.33998047 0.13535156 2.70703125 0.2734375 C20.85922872 2.9827207 38.81648636 15.90263075 49.75 30.08203125 C51 32 51 32 51 34 C51.66 34 52.32 34 53 34 C53.66 36.31 54.32 38.62 55 41 C55.66 41 56.32 41 57 41 C57.80478128 42.9320894 58.59300609 44.87107581 59.375 46.8125 C59.81585938 47.89144531 60.25671875 48.97039062 60.7109375 50.08203125 C64.92673409 62.15653728 64.23206201 74.57644769 64.125 87.1875 C64.08375 94.055625 64.0425 100.92375 64 108 C81.82 108 99.64 108 118 108 C118 93.81 118 79.62 118 65 C118.66 65 119.32 65 120 65 C119.94392578 63.50533203 119.94392578 63.50533203 119.88671875 61.98046875 C120.00350432 57.87686562 120.72280053 54.23938064 121.8125 50.3125 C121.97814453 49.66216797 122.14378906 49.01183594 122.31445312 48.34179688 C123.32129732 44.61457366 124.51622976 41.94200592 127 39 C127.515625 38.01 128.03125 37.02 128.5625 36 C135.46336672 23.88456858 145.58693652 15.60870899 157 8 C158.32 8 159.64 8 161 8 C161 7.34 161 6.68 161 6 C184.48225615 -3.61304861 205.500995 -1.11164599 229 7 C229 7.66 229 8.32 229 9 C229.60328125 9.17015625 230.2065625 9.3403125 230.828125 9.515625 C239.03544576 12.00429646 239.03544576 12.00429646 242 16 C242 16.66 242 17.32 242 18 C242.99 18 243.98 18 245 18 C245 18.66 245 19.32 245 20 C245.639375 20.268125 246.27875 20.53625 246.9375 20.8125 C249 22 249 22 250 25 C250.66 25 251.32 25 252 25 C252.33 25.99 252.66 26.98 253 28 C253.598125 28.598125 254.19625 29.19625 254.8125 29.8125 C259.01264969 34.01264969 261.35986276 38.52424621 263.2734375 44.0546875 C264.04265807 46.24997521 264.04265807 46.24997521 265.6875 49.125 C267.14823998 52.32471614 267.24831221 54.52362909 267 58 C267.66 58 268.32 58 269 58 C270.71108366 70.10920744 271.16270274 80.93877319 269 93 C268.34 93 267.68 93 267 93 C266.95875 94.258125 266.9175 95.51625 266.875 96.8125 C266.19997558 103.02468121 263.17561677 107.73370286 260 113 C259.20514328 114.39401923 258.41293244 115.78955534 257.625 117.1875 C256.820625 118.5796875 256.820625 118.5796875 256 120 C255.34 120 254.68 120 254 120 C253.5978125 121.2065625 253.5978125 121.2065625 253.1875 122.4375 C252.795625 123.283125 252.40375 124.12875 252 125 C250.515 125.495 250.515 125.495 249 126 C248.71125 126.763125 248.4225 127.52625 248.125 128.3125 C246.72214939 131.66375423 244.97946197 132.98886317 242 135 C241.34 135 240.68 135 240 135 C239.67 135.99 239.34 136.98 239 138 C236.57650737 139.45171084 234.22427995 140.717061 231.6875 141.9375 C230.60686279 142.46645874 230.60686279 142.46645874 229.50439453 143.00610352 C217.99902089 148.52169755 207.51411874 151.16846872 194.7890625 151.09765625 C193.93014404 151.09664917 193.07122559 151.09564209 192.1862793 151.09460449 C188.99917248 151.08940002 185.8120848 151.07543887 182.625 151.0625 C175.48875 151.041875 168.3525 151.02125 161 151 C161 169.15 161 187.3 161 206 C174.80499488 205.88207208 174.80499488 205.88207208 188.60961914 205.72973633 C199.46719033 205.65191373 209.4647124 206.23444803 220 209 C220 209.66 220 210.32 220 211 C220.72832031 211.12246094 221.45664062 211.24492187 222.20703125 211.37109375 C231.18692422 213.39313958 238.12686649 219.1896031 245 225 C245.82757813 225.62519531 246.65515625 226.25039063 247.5078125 226.89453125 C254.42791765 232.74082698 259.42149644 240.58105443 262.24609375 249.13671875 C262.84014513 251.19565242 262.84014513 251.19565242 265 252 C265.6328125 254.50390625 265.6328125 254.50390625 266.125 257.5625 C266.29257812 258.57441406 266.46015625 259.58632813 266.6328125 260.62890625 C266.75398438 261.41136719 266.87515625 262.19382812 267 263 C267.66 263 268.32 263 269 263 C271.99077945 280.3175778 270.68844982 297.75662187 264 314 C263.34 314 262.68 314 262 314 C261.9175 314.94875 261.835 315.8975 261.75 316.875 C261.37875 318.421875 261.37875 318.421875 261 320 C259 321.125 259 321.125 257 322 C256.855625 322.5775 256.71125 323.155 256.5625 323.75 C255.66863685 327.3254526 253.4985255 329.31865556 251 332 C250.34 332 249.68 332 249 332 C248.34 333.65 247.68 335.3 247 337 C246.34 337 245.68 337 245 337 C245 337.66 245 338.32 245 339 C244.01 339 243.02 339 242 339 C241.67 339.99 241.34 340.98 241 342 C238.9375 342.6875 238.9375 342.6875 237 343 C237 343.66 237 344.32 237 345 C234 347 234 347 231 347 C231 347.66 231 348.32 231 349 C227.67903553 350.36582464 224.34401965 351.69167593 221 353 C220.29359375 353.28488281 219.5871875 353.56976563 218.859375 353.86328125 C199.52193302 361.05946672 179.86193835 357.60167842 161 351 C161 350.34 161 349.68 161 349 C159.4221875 348.6596875 159.4221875 348.6596875 157.8125 348.3125 C153.81144068 347.19123539 151.81592884 345.0442474 149 342 C147.68163705 341.30419733 146.35208914 340.62775567 145 340 C144.67 339.34 144.34 338.68 144 338 C143.01 337.67 142.02 337.34 141 337 C139.37090909 335.24710944 137.81595653 333.42426823 136.3125 331.5625 C135.50425781 330.57378906 134.69601562 329.58507812 133.86328125 328.56640625 C132 326 132 326 132 324 C131.34 324 130.68 324 130 324 C127.4841887 318.57657071 125.00358949 313.13712697 122.6875 307.625 C122.36136719 306.85414063 122.03523437 306.08328125 121.69921875 305.2890625 C120.92483553 302.75393085 120.87425868 300.63591073 121 298 C120.34 298 119.68 298 119 298 C118.0293998 292.33424729 117.86862248 286.87028362 117.90234375 281.12890625 C117.90385437 279.90101379 117.90385437 279.90101379 117.90539551 278.64831543 C117.91058799 275.61969583 117.92454895 272.59109636 117.9375 269.5625 C117.958125 262.776875 117.97875 255.99125 118 249 C100.18 249 82.36 249 64 249 C64.0787836 262.65596572 64.0787836 262.65596572 64.18017578 276.31176758 C64.26823775 294.48324033 64.26823775 294.48324033 62 303 C61.34 303 60.68 303 60 303 C59.938125 303.94875 59.87625 304.8975 59.8125 305.875 C58.52297132 314.5531795 53.00208443 321.68684312 47.8515625 328.515625 C46.39228122 330.47364798 45.07987926 332.41861292 43.8125 334.5 C41.75200939 337.34205601 40.06561188 338.32784807 37 340 C35.84763102 340.90843686 34.70261924 341.82623601 33.5625 342.75 C20.1843176 352.91032413 5.25475188 357.17688677 -11.3125 357.1875 C-12.30701172 357.19974609 -13.30152344 357.21199219 -14.32617188 357.22460938 C-23.39454001 357.24247221 -31.19675215 355.41062506 -39.75 352.5625 C-41.00296875 352.15128906 -42.2559375 351.74007813 -43.546875 351.31640625 C-46.65991427 350.12964807 -49.2935588 348.93686155 -52 347 C-52 346.34 -52 345.68 -52 345 C-52.5775 344.896875 -53.155 344.79375 -53.75 344.6875 C-56.35661158 343.89103535 -57.9735311 342.80934723 -60 341 C-60 340.34 -60 339.68 -60 339 C-60.66 339 -61.32 339 -62 339 C-62 338.34 -62 337.68 -62 337 C-62.99 337 -63.98 337 -65 337 C-66.4296875 335.4609375 -66.4296875 335.4609375 -67.875 333.375 C-69.73140781 330.76313095 -71.59203566 328.23716115 -73.6875 325.8125 C-77.21268745 321.52510986 -79.48817018 318.69531872 -79 313 C-79.66 313 -80.32 313 -81 313 C-81 312.01 -81 311.02 -81 310 C-81.66 310 -82.32 310 -83 310 C-88.28859803 292.41068957 -89.6840268 272.73042105 -84 255 C-83.04687432 253.30609056 -82.0538983 251.63311854 -81 250 C-80.67 249.175 -80.34 248.35 -80 247.5 C-78.3183046 243.2957615 -75.93738411 239.44823352 -73 236 C-72.34 236 -71.68 236 -71 236 C-70.896875 235.360625 -70.79375 234.72125 -70.6875 234.0625 C-70.460625 233.381875 -70.23375 232.70125 -70 232 C-69.01 231.67 -68.02 231.34 -67 231 C-66.26676204 228.98491642 -66.26676204 228.98491642 -66 227 C-65.38125 226.9175 -64.7625 226.835 -64.125 226.75 C-63.073125 226.37875 -63.073125 226.37875 -62 226 C-61.731875 225.4225 -61.46375 224.845 -61.1875 224.25 C-59.34935711 220.76720294 -56.37635172 218.92727373 -53 217 C-50.0625 216.1875 -50.0625 216.1875 -48 216 C-48 215.34 -48 214.68 -48 214 C-47.04287109 213.70996094 -47.04287109 213.70996094 -46.06640625 213.4140625 C-45.24011719 213.15367187 -44.41382813 212.89328125 -43.5625 212.625 C-42.73878906 212.36976563 -41.91507813 212.11453125 -41.06640625 211.8515625 C-38.82201984 211.19117773 -38.82201984 211.19117773 -38 209 C-25.44387963 205.21983885 -12.46507224 205.64381872 0.5 205.8125 C7.265 205.874375 14.03 205.93625 21 206 C21 187.85 21 169.7 21 151 C7.38907759 151.07873878 7.38907759 151.07873878 -6.22167969 151.18017578 C-15.6769933 151.2261091 -24.74545487 151.17508785 -34 149 C-34 148.34 -34 147.68 -34 147 C-35.2375 146.79375 -36.475 146.5875 -37.75 146.375 C-43.91128229 145.01127669 -49.68556255 142.39054207 -55 139 C-55.33 138.01 -55.66 137.02 -56 136 C-56.825 135.67 -57.65 135.34 -58.5 135 C-59.325 134.67 -60.15 134.34 -61 134 C-61.33 133.01 -61.66 132.02 -62 131 C-62.66 130.67 -63.32 130.34 -64 130 C-66 129 -66 129 -67 126 C-67.66 125.67 -68.32 125.34 -69 125 C-71 124 -71 124 -72 121 C-73.485 120.505 -73.485 120.505 -75 120 C-75 118.68 -75 117.36 -75 116 C-75.66 116 -76.32 116 -77 116 C-82.68523542 106.65339938 -86.75852161 97.12498354 -86 86 C-86.66 86 -87.32 86 -88 86 C-88.1968999 83.64628886 -88.38270974 81.2925305 -88.5625 78.9375 C-88.66691406 77.62652344 -88.77132812 76.31554687 -88.87890625 74.96484375 C-88.99765619 71.07674103 -88.66866216 67.80889777 -88 64 C-87.34 64 -86.68 64 -86 64 C-85.95101562 63.35933594 -85.90203125 62.71867187 -85.8515625 62.05859375 C-85.03685401 52.63325933 -82.39327267 45.3338035 -78 37 C-77.34 37 -76.68 37 -76 37 C-75.95875 36.319375 -75.9175 35.63875 -75.875 34.9375 C-74.64701039 30.81496347 -72.15076207 27.90003829 -69 25 C-68.34 25 -67.68 25 -67 25 C-66.95875 24.443125 -66.9175 23.88625 -66.875 23.3125 C-65.56185715 19.84205104 -62.87374665 18.16303511 -60 16 C-59.32839844 15.46632813 -58.65679687 14.93265625 -57.96484375 14.3828125 C-54.58766449 11.74419394 -52.16612618 10.03706145 -48 9 C-47.67 8.34 -47.34 7.68 -47 7 C-31.49823946 0.29653598 -16.71805883 -1.81215941 0 0 Z " fill="#56A6E3" transform="translate(182,58)"/>
<path d="M0 0 C9.74905129 0.26578657 16.9129354 2.51739267 24.12109375 9.22265625 C31.2925364 16.94173634 34.23279187 24.14154722 34.046875 34.80078125 C32.94878314 43.64738049 28.62923143 51.79584332 21.93359375 57.63671875 C19.08966865 59.78466218 17.39937092 61.03515625 13.76953125 61.03515625 C13.76953125 61.69515625 13.76953125 62.35515625 13.76953125 63.03515625 C11.0607379 64.38955293 8.76019857 64.10017076 5.76953125 64.03515625 C5.76953125 64.69515625 5.76953125 65.35515625 5.76953125 66.03515625 C-6.77046875 66.03515625 -19.31046875 66.03515625 -32.23046875 66.03515625 C-32.23046875 53.16515625 -32.23046875 40.29515625 -32.23046875 27.03515625 C-31.57046875 27.03515625 -30.91046875 27.03515625 -30.23046875 27.03515625 C-30.35421875 26.07609375 -30.35421875 26.07609375 -30.48046875 25.09765625 C-29.89753778 17.95675183 -26.34751872 12.37221699 -21.1484375 7.60546875 C-14.24144481 1.9504564 -8.90150404 0.09687247 0 0 Z " fill="#FBFDFE" transform="translate(375.23046875,100.96484375)"/>
<path d="M0 0 C1.78058761 0.01507736 3.5611876 0.02876035 5.34179688 0.04101562 C9.66567507 0.07377208 13.98894799 0.12538458 18.3125 0.1875 C18.43763614 5.21874272 18.52754901 10.24904768 18.5871582 15.28149414 C18.61204881 16.98738414 18.64597467 18.6931704 18.68969727 20.39868164 C19.02312884 33.75555825 18.15347182 44.55122099 9.375 55.375 C6.3080843 58.55248761 3.77756476 60.40611367 -0.6875 61.1875 C-0.6875 61.8475 -0.6875 62.5075 -0.6875 63.1875 C-12.43917979 65.56758705 -23.41276164 66.41151916 -34.08203125 59.67578125 C-34.61183594 59.18464844 -35.14164063 58.69351563 -35.6875 58.1875 C-35.6875 57.5275 -35.6875 56.8675 -35.6875 56.1875 C-36.30625 55.94 -36.925 55.6925 -37.5625 55.4375 C-40.06568306 53.96503937 -40.51795281 52.77721163 -41.6875 50.1875 C-42.3475 49.8575 -43.0075 49.5275 -43.6875 49.1875 C-48.81574723 40.16178487 -48.1522876 29.17059087 -46.6875 19.1875 C-46.0275 19.1875 -45.3675 19.1875 -44.6875 19.1875 C-44.0275 17.8675 -43.3675 16.5475 -42.6875 15.1875 C-42.0275 15.1875 -41.3675 15.1875 -40.6875 15.1875 C-40.60242188 14.61128906 -40.51734375 14.03507812 -40.4296875 13.44140625 C-39.46678594 10.51722626 -38.0688058 9.20867031 -35.8125 7.125 C-35.11382812 6.45339844 -34.41515625 5.78179687 -33.6953125 5.08984375 C-23.54571141 -1.32944941 -11.52914611 -0.170667 0 0 Z " fill="#FCFDFE" transform="translate(184.6875,306.8125)"/>
<path d="M0 0 C7.34918375 6.18806736 12.18408074 11.87747571 13.9140625 21.45703125 C14.39476337 27.98390627 14.19787108 34.5439506 14.1015625 41.08203125 C14.0864891 42.86717622 14.07280539 44.65233349 14.06054688 46.4375 C14.02774995 50.77765154 13.97611459 55.11720342 13.9140625 59.45703125 C8.68543919 59.55671171 3.45738206 59.62887872 -1.77197266 59.67675781 C-3.54681039 59.69673964 -5.32158344 59.7239348 -7.09619141 59.75878906 C-25.66093296 60.11399515 -25.66093296 60.11399515 -34.0859375 55.45703125 C-35.1790625 54.98265625 -36.2721875 54.50828125 -37.3984375 54.01953125 C-41.55983092 51.60011647 -44.54739262 49.07266589 -46.0859375 44.45703125 C-46.7459375 44.12703125 -47.4059375 43.79703125 -48.0859375 43.45703125 C-50.22021314 37.78574049 -50.42088216 32.47220013 -50.3984375 26.45703125 C-50.41455078 25.59335938 -50.43066406 24.7296875 -50.44726562 23.83984375 C-50.45149566 18.27311168 -49.63830477 14.41360727 -47.0859375 9.45703125 C-46.4259375 9.45703125 -45.7659375 9.45703125 -45.0859375 9.45703125 C-44.8796875 8.73515625 -44.6734375 8.01328125 -44.4609375 7.26953125 C-41.52375951 1.26166718 -35.19616238 -2.25163442 -29.0859375 -4.54296875 C-19.51113066 -6.64155655 -8.07388802 -5.972258 0 0 Z " fill="#FDFEFE" transform="translate(189.0859375,106.54296875)"/>
<path d="M0 0 C5.10455945 -0.04979311 10.2089745 -0.08590409 15.3137207 -0.10986328 C17.04681871 -0.11986161 18.7799001 -0.13346473 20.51293945 -0.15087891 C23.01778284 -0.17540084 25.52240136 -0.18654496 28.02734375 -0.1953125 C28.79022202 -0.20563507 29.55310028 -0.21595764 30.33909607 -0.22659302 C43.10948044 -0.22919963 49.68976627 4.10130325 58.875 12.6875 C65.44883054 22.93494173 65.64225824 33.36382836 64 45 C63.505 45.99 63.505 45.99 63 47 C62.34 47 61.68 47 61 47 C60.7215625 48.0209375 60.7215625 48.0209375 60.4375 49.0625 C57.19343973 55.69166664 51.49004406 60.0267943 44.859375 63.05078125 C34.71275333 66.41912697 24.6184629 65.51426526 15 61 C7.48720985 56.03742302 7.48720985 56.03742302 6.484375 51.84375 C6.32453125 51.2353125 6.1646875 50.626875 6 50 C5.01 49.67 4.02 49.34 3 49 C-1.40521912 39.43881476 -0.34447234 28.00750103 -0.1875 17.75 C-0.17241737 16.02214716 -0.15873533 14.29428149 -0.14648438 12.56640625 C-0.11378169 8.37728156 -0.06220022 4.18878627 0 0 Z " fill="#FDFDFE" transform="translate(344,307)"/>
<path d="M0 0 C17.82 0 35.64 0 54 0 C54 18.15 54 36.3 54 55 C36.18 55 18.36 55 0 55 C0 36.85 0 18.7 0 0 Z " fill="#FEFEFE" transform="translate(246,209)"/>
<path d="M0 0 C17.82 0 35.64 0 54 0 C54 18.15 54 36.3 54 55 C36.18 55 18.36 55 0 55 C0 36.85 0 18.7 0 0 Z M2 2 C2 18.83 2 35.66 2 53 C18.83 53 35.66 53 53 53 C53 36.17 53 19.34 53 2 C36.17 2 19.34 2 2 2 Z " fill="#DAECF7" transform="translate(246,209)"/>
<path d="M0 0 C5.84917507 -0.07507333 11.69805967 -0.129031 17.54760742 -0.16479492 C19.53073014 -0.17972977 21.51382073 -0.20008507 23.49682617 -0.22631836 C35.40501674 -0.37972016 46.42919276 -0.01595828 58 3 C58 3.66 58 4.32 58 5 C58.70125 5.103125 59.4025 5.20625 60.125 5.3125 C63.39137647 6.09359003 66.0471852 7.42058743 69 9 C65.98968256 9.93423645 65.13349732 10.04449911 62 9 C62 8.34 62 7.68 62 7 C56.33790991 5.72146353 50.67495727 4.53035468 44.96875 3.46484375 C43 3 43 3 42 2 C38.89914779 1.83958807 35.81812421 1.74036598 32.71484375 1.68359375 C31.31861534 1.6524221 31.31861534 1.6524221 29.8941803 1.62062073 C26.90869818 1.55502069 23.92312516 1.49619198 20.9375 1.4375 C18.91861024 1.3943247 16.8997298 1.35071075 14.88085938 1.30664062 C9.92066703 1.19932871 4.96038291 1.09809112 0 1 C0 0.67 0 0.34 0 0 Z " fill="#6EACDA" transform="translate(344,264)"/>
<path d="M0 0 C0.33 0 0.66 0 1 0 C1.75980105 15.34555626 2.13609886 30.63595086 2 46 C2.66 46 3.32 46 4 46 C6.29612756 55.41002278 6.29612756 55.41002278 6 60 C3.60236815 57.60236815 3.65719414 56.66726502 3.375 53.375 C3.30023438 52.55773437 3.22546875 51.74046875 3.1484375 50.8984375 C3.09945313 50.27195312 3.05046875 49.64546875 3 49 C2.34 49 1.68 49 1 49 C0.02941168 43.33431663 -0.13123058 37.87005197 -0.09765625 32.12890625 C-0.0962413 31.206577 -0.09482635 30.28424774 -0.09336853 29.33396912 C-0.08780506 26.41011202 -0.07525942 23.48633365 -0.0625 20.5625 C-0.05748028 18.57096465 -0.0529182 16.5794281 -0.04882812 14.58789062 C-0.03784762 9.72523044 -0.02060839 4.86262853 0 0 Z " fill="#88BBE2" transform="translate(300,307)"/>
<path d="M0 0 C0.97602955 3.07243106 0.96951672 4.96786681 0.125 8.0625 C-1.00871847 12.63541813 -1.43446732 17.11870348 -1.75390625 21.8125 C-2 24 -2 24 -3 25 C-3.23527773 27.34987262 -3.41386417 29.70556039 -3.5625 32.0625 C-3.64628906 33.35285156 -3.73007813 34.64320313 -3.81640625 35.97265625 C-3.87699219 36.97167969 -3.93757813 37.97070312 -4 39 C-4.33 39 -4.66 39 -5 39 C-5.1968999 36.64628886 -5.38270974 34.2925305 -5.5625 31.9375 C-5.66691406 30.62652344 -5.77132812 29.31554687 -5.87890625 27.96484375 C-5.99765619 24.07674103 -5.66866216 20.80889777 -5 17 C-4.34 17 -3.68 17 -3 17 C-2.95101562 16.35933594 -2.90203125 15.71867187 -2.8515625 15.05859375 C-2.3959855 9.78803915 -1.6402621 5.03013712 0 0 Z " fill="#92C1E3" transform="translate(99,105)"/>
<path d="M0 0 C0.33 0 0.66 0 1 0 C2.71108366 12.10920744 3.16270274 22.93877319 1 35 C0.67 35 0.34 35 0 35 C0 23.45 0 11.9 0 0 Z " fill="#87BCE1" transform="translate(450,116)"/>
<path d="M0 0 C0.66 0.33 1.32 0.66 2 1 C0.35 1.66 -1.3 2.32 -3 3 C-3 3.66 -3 4.32 -3 5 C-4.63183107 6.05589069 -6.30792999 7.0436126 -8 8 C-12.22825777 10.71679869 -12.22825777 10.71679869 -16 14 C-16.99 14 -17.98 14 -19 14 C-17.50107178 9.50321534 -13.95800917 7.25929279 -10 5 C-7.0625 4.1875 -7.0625 4.1875 -5 4 C-5 3.34 -5 2.68 -5 2 C-2.625 0.9375 -2.625 0.9375 0 0 Z " fill="#74B2DC" transform="translate(139,270)"/>
<path d="M0 0 C0.66 0.33 1.32 0.66 2 1 C1.57847656 1.68707031 1.15695312 2.37414062 0.72265625 3.08203125 C0.17480469 3.98308594 -0.37304688 4.88414063 -0.9375 5.8125 C-1.75541016 7.15248047 -1.75541016 7.15248047 -2.58984375 8.51953125 C-4.11009578 11.00703562 -4.11009578 11.00703562 -5 14 C-6.65 14 -8.3 14 -10 14 C-8.43632643 10.47761953 -6.30504111 7.72876006 -3.875 4.75 C-3.15054687 3.85796875 -2.42609375 2.9659375 -1.6796875 2.046875 C-0.84824219 1.03367187 -0.84824219 1.03367187 0 0 Z " fill="#6AADDC" transform="translate(323,78)"/>
<path d="M0 0 C0 0.66 0 1.32 0 2 C-1.24735567 2.6509259 -2.49801832 3.29551669 -3.75 3.9375 C-4.79414063 4.47697266 -4.79414063 4.47697266 -5.859375 5.02734375 C-10.62086882 7.19086922 -14.83143457 7.25009188 -20 7 C-20.66 6.34 -21.32 5.68 -22 5 C-20.80761719 4.80664062 -19.61523438 4.61328125 -18.38671875 4.4140625 C-16.82024888 4.15142084 -15.25384605 3.88837912 -13.6875 3.625 C-12.90181641 3.49867188 -12.11613281 3.37234375 -11.30664062 3.2421875 C-10.1706543 3.04882812 -10.1706543 3.04882812 -9.01171875 2.8515625 C-8.31522217 2.73635254 -7.61872559 2.62114258 -6.90112305 2.50244141 C-4.23457625 1.79770874 -2.8200036 0 0 0 Z " fill="#7EB6DE" transform="translate(394,367)"/>
<path d="M0 0 C0.33 0 0.66 0 1 0 C1.66 3.3 2.32 6.6 3 10 C3.66 10 4.32 10 5 10 C7 13 7 13 7 17 C7.66 17 8.32 17 9 17 C9.66 19.31 10.32 21.62 11 24 C10.34 24 9.68 24 9 24 C9 22.68 9 21.36 9 20 C8.34 20 7.68 20 7 20 C2.87458093 13.25046116 0.26114153 7.9648168 0 0 Z " fill="#97C4E4" transform="translate(98,154)"/>
<path d="M0 0 C0.33 0 0.66 0 1 0 C1.30497051 8.99663016 1.30497051 8.99663016 -1 13 C-1.99 13.33 -2.98 13.66 -4 14 C-4.73323796 16.01508358 -4.73323796 16.01508358 -5 18 C-5.99 17.67 -6.98 17.34 -8 17 C-7.59007812 16.35933594 -7.18015625 15.71867188 -6.7578125 15.05859375 C-3.66184574 10.08875238 -1.24627496 5.73286482 0 0 Z " fill="#7AB3DE" transform="translate(408,138)"/>
<path d="M0 0 C2.97 0.33 5.94 0.66 9 1 C9 1.66 9 2.32 9 3 C10.051875 3.1546875 10.051875 3.1546875 11.125 3.3125 C14.39137647 4.09359003 17.0471852 5.42058743 20 7 C16.98968256 7.93423645 16.13349732 8.04449911 13 7 C13 6.34 13 5.68 13 5 C12.39671875 4.87882812 11.7934375 4.75765625 11.171875 4.6328125 C10.37265625 4.46523438 9.5734375 4.29765625 8.75 4.125 C7.96109375 3.96257812 7.1721875 3.80015625 6.359375 3.6328125 C4.03168856 3.00849925 2.10968048 2.15161458 0 1 C0 0.67 0 0.34 0 0 Z " fill="#7CB5DD" transform="translate(393,266)"/>
<path d="M0 0 C1 2 1 2 0.51171875 3.91796875 C0.23972656 4.66691406 -0.03226562 5.41585938 -0.3125 6.1875 C-1.33725434 9.088631 -2.3085184 11.97074242 -3.125 14.9375 C-4 18 -4 18 -5 20 C-5.66 19.67 -6.32 19.34 -7 19 C-6.02479711 13.73390442 -5.00937529 9.51406294 -2 5 C-1.30177383 3.34630643 -0.62501395 1.68272986 0 0 Z " fill="#7CB5E0" transform="translate(103,303)"/>
<path d="M0 0 C0.66 0.33 1.32 0.66 2 1 C-1.48172863 5.23862616 -5.90798994 7.23702046 -11 9 C-11.99 9 -12.98 9 -14 9 C-8.08403361 3.75630252 -8.08403361 3.75630252 -4 3 C-3.67 2.34 -3.34 1.68 -3 1 C-2.01 0.67 -1.02 0.34 0 0 Z " fill="#81B8DF" transform="translate(138,64)"/>
<path d="M0 0 C-1 2 -1 2 -2.85546875 2.66796875 C-7.56813712 3.71785969 -11.21725097 4.22634591 -16 3 C-16 2.67 -16 2.34 -16 2 C-10.61972975 0.80911014 -5.54708616 -0.2919519 0 0 Z " fill="#73B0DC" transform="translate(160,265)"/>
<path d="M0 0 C3.73884332 2.65654657 5.64978174 4.58110387 7 9 C5.68 9 4.36 9 3 9 C0.43228397 5.69865082 0 4.27125508 0 0 Z " fill="#6CADD7" transform="translate(226,83)"/>
<path d="M0 0 C5.28 0 10.56 0 16 0 C13.14787234 2.85212766 10.98009518 2.73901015 7 3 C4.54740506 2.52944399 2.37043901 1.82239721 0 1 C0 0.67 0 0.34 0 0 Z " fill="#58A1D5" transform="translate(355,167)"/>
<path d="M0 0 C0 3 0 3 -1.53125 4.82421875 C-2.1809375 5.43910156 -2.830625 6.05398438 -3.5 6.6875 C-4.1496875 7.31011719 -4.799375 7.93273437 -5.46875 8.57421875 C-5.9740625 9.04472656 -6.479375 9.51523437 -7 10 C-7.33 9.01 -7.66 8.02 -8 7 C-5.36 4.69 -2.72 2.38 0 0 Z " fill="#E3EEF6" transform="translate(152,312)"/>
<path d="M0 0 C1.43410153 3.78819273 0.51009497 6.06521279 -0.9375 9.75 C-1.31777344 10.73484375 -1.69804687 11.7196875 -2.08984375 12.734375 C-2.39019531 13.48203125 -2.69054687 14.2296875 -3 15 C-4.45606519 10.47907032 -3.27032841 7.48351204 -2 3 C-1.34 3 -0.68 3 0 3 C0 2.01 0 1.02 0 0 Z " fill="#99C4E3" transform="translate(449,357)"/>
<path d="M0 0 C0.33 0 0.66 0 1 0 C1 2.31 1 4.62 1 7 C1.66 7 2.32 7 3 7 C3.33 9.64 3.66 12.28 4 15 C3.34 15 2.68 15 2 15 C-0.59227518 10.13948404 -0.18689553 5.34728867 0 0 Z " fill="#7DB5DE" transform="translate(342,337)"/>
<path d="M0 0 C0.66 0.33 1.32 0.66 2 1 C-0.475 4.465 -0.475 4.465 -3 8 C-3.66 6.68 -4.32 5.36 -5 4 C-3.35 2.68 -1.7 1.36 0 0 Z " fill="#67A9DA" transform="translate(231,381)"/>
<path d="M0 0 C1 3 1 3 0.22265625 5.04296875 C-0.16019531 5.75066406 -0.54304687 6.45835937 -0.9375 7.1875 C-1.31777344 7.90292969 -1.69804687 8.61835938 -2.08984375 9.35546875 C-2.54037109 10.16951172 -2.54037109 10.16951172 -3 11 C-3.87840996 7.90279155 -3.99435406 6.09354597 -3 3 C-2.34 3 -1.68 3 -1 3 C-0.67 2.01 -0.34 1.02 0 0 Z " fill="#76B1DC" transform="translate(241,363)"/>
<path d="M0 0 C0.33 0 0.66 0 1 0 C2.79074734 5.89893243 3.08360869 9.93179132 2 16 C1.67 16 1.34 16 1 16 C0.14701624 12.32612505 -0.10789471 8.9552607 -0.0625 5.1875 C-0.05347656 4.21167969 -0.04445313 3.23585938 -0.03515625 2.23046875 C-0.02355469 1.49441406 -0.01195313 0.75835937 0 0 Z " fill="#63A8D7" transform="translate(95,340)"/>
<path d="M0 0 C0.66 0 1.32 0 2 0 C0.33248852 3.94139078 -2.22710649 6.7892812 -5 10 C-5.66 9.67 -6.32 9.34 -7 9 C-5.88266271 7.49428343 -4.75589965 5.99555708 -3.625 4.5 C-2.99851562 3.6646875 -2.37203125 2.829375 -1.7265625 1.96875 C-1.15679687 1.3190625 -0.58703125 0.669375 0 0 Z " fill="#81B8E0" transform="translate(113,83)"/>
<path d="M0 0 C0.66 0.33 1.32 0.66 2 1 C0.25 3.9375 0.25 3.9375 -2 7 C-3.32 7.33 -4.64 7.66 -6 8 C-4.02 5.36 -2.04 2.72 0 0 Z " fill="#85BADD" transform="translate(323,78)"/>
<path d="M0 0 C1.8125 0.0625 1.8125 0.0625 4 1 C5.8125 4.375 5.8125 4.375 7 8 C6.67 8.99 6.34 9.98 6 11 C5.566875 10.113125 5.13375 9.22625 4.6875 8.3125 C3.23215183 5.45570545 1.68372526 2.72603137 0 0 Z " fill="#78B1DA" transform="translate(400,317)"/>
<path d="M0 0 C0.66 0.33 1.32 0.66 2 1 C1.67 1.99 1.34 2.98 1 4 C0.34 4 -0.32 4 -1 4 C-1.33 4.99 -1.66 5.98 -2 7 C-4.0625 7.6875 -4.0625 7.6875 -6 8 C-5.34 7.01 -4.68 6.02 -4 5 C-3.34 5 -2.68 5 -2 5 C-1.855625 4.360625 -1.71125 3.72125 -1.5625 3.0625 C-1 1 -1 1 0 0 Z " fill="#85B9DB" transform="translate(117,284)"/>
<path d="M0 0 C2.35953094 2.35953094 2.49141413 3.77895617 3 7 C3.66 7 4.32 7 5 7 C5 7.99 5 8.98 5 10 C2 9 2 9 0.8125 6.6875 C0 4 0 4 0 0 Z " fill="#84B9DF" transform="translate(234,92)"/>
<path d="M0 0 C0.33 0.99 0.66 1.98 1 3 C-1.375 4.5625 -1.375 4.5625 -4 6 C-4.66 5.67 -5.32 5.34 -6 5 C-4.02 3.35 -2.04 1.7 0 0 Z " fill="#7EB5DF" transform="translate(331,72)"/>
<path d="M0 0 C0.66 0 1.32 0 2 0 C4 3 4 3 3.625 5.1875 C3.41875 5.785625 3.2125 6.38375 3 7 C1.68 5.02 0.36 3.04 -1 1 C-0.67 0.67 -0.34 0.34 0 0 Z " fill="#76B3D9" transform="translate(315,382)"/>
<path d="M0 0 C0.66 1.32 1.32 2.64 2 4 C0.35 5.65 -1.3 7.3 -3 9 C-3 5.30581799 -1.71820705 3.22163822 0 0 Z " fill="#8BBEE3" transform="translate(199,352)"/>
<path d="M0 0 C0.33 0 0.66 0 1 0 C2.25 6.625 2.25 6.625 0 10 C-0.66 9.67 -1.32 9.34 -2 9 C-1.34 6.03 -0.68 3.06 0 0 Z " fill="#8DC0E4" transform="translate(98,313)"/>
</svg>
